<?xml version="1.0" encoding="UTF-8" standalone="no"?>
<svg
   xmlns:dc="http://purl.org/dc/elements/1.1/"
   xmlns:cc="http://creativecommons.org/ns#"
   xmlns:rdf="http://www.w3.org/1999/02/22-rdf-syntax-ns#"
   xmlns:svg="http://www.w3.org/2000/svg"
   xmlns="http://www.w3.org/2000/svg"
   xmlns:sodipodi="http://sodipodi.sourceforge.net/DTD/sodipodi-0.dtd"
   xmlns:inkscape="http://www.inkscape.org/namespaces/inkscape"
   inkscape:export-ydpi="96"
   inkscape:export-xdpi="96"
   inkscape:export-filename="/Users/fazi/Desktop/docs/theme/images/company_logo.png"
   version="1.1"
   id="svg833"
   xml:space="preserve"
   width="414.18475"
   height="426.88269"
   viewBox="0 0 414.18477 426.8827"
   sodipodi:docname="logo.svg"
   inkscape:version="1.0 (4035a4f, 2020-05-01)"><metadata
     id="metadata839"><rdf:RDF><cc:Work
         rdf:about=""><dc:format>image/svg+xml</dc:format><dc:type
           rdf:resource="http://purl.org/dc/dcmitype/StillImage" /><dc:title /></cc:Work></rdf:RDF></metadata><defs
     id="defs837"><clipPath
       clipPathUnits="userSpaceOnUse"
       id="clipPath861"><path
         d="m 7240.06,4217.8 c -14.63,-94.3 -46.95,-171.5 -76.06,-231.8 -7.78,-14.9 -15.14,-29 -22.07,-42.3 -7.06,-13.2 -15.69,-24.6 -22.59,-35.6 -7.15,-10.9 -13.78,-21 -19.84,-30.2 -5.89,-9.3 -12.76,-16.5 -18.11,-23.6 -22.38,-27.6 -34.32,-42.4 -34.32,-42.4 0,0 2.55,4.3 7.41,12.5 -0.23,-0.3 -0.53,-0.7 -0.76,-1 -4.21,-5.7 -6.38,-8.7 -6.38,-8.7 0,0 1.56,3.3 4.59,9.8 3.07,6.4 7.51,15.9 12.95,28.5 11.09,25 25.39,62.5 39.16,110.9 13.18,48.6 24.33,108.8 27.44,177.7 0.2,8.6 0.4,17.4 0.61,26.2 -0.11,8.7 -0.23,17.6 -0.35,26.6 -0.46,9.1 -0.73,19.7 -1.36,28.1 -0.82,9.4 -1.65,18.8 -2.5,28.4 -4.13,38.1 -10.45,77.8 -20.97,118.1 -20.65,80.6 -57.03,163.8 -110.84,240.6 -6.42,9.8 -13.89,19 -20.99,28.5 -6.93,9.6 -14.81,18.6 -22.48,27.8 -7.6,9.6 -15.62,17.7 -23.49,26.3 -7.24,8.3 -17.44,17.9 -26.65,27.1 -34.99,33.1 -74.4,66.1 -116.63,94.3 -42.4,28.4 -87.7,53.9 -135.68,74.7 -48,20.8 -98.4,37.5 -150.27,49.5 -51.52,11.9 -106.32,18.5 -157.83,20.7 l -21.84,0.4 -10.93,0.3 h -2.74 l -1.34,0.1 -4.81,-0.2 c -13.46,-0.5 -26.96,-0.4 -40.41,-1.4 -26.93,-1.7 -53.78,-4.6 -80.45,-8.7 -106.81,-15.9 -210.02,-53.4 -301.68,-107.4 -45.49,-26.9 -89.36,-58.9 -127.19,-91.7 -10.39,-9.5 -20.75,-19.1 -31.08,-28.5 -8.88,-9 -17.74,-18 -26.57,-26.9 -9.42,-9.2 -17.66,-19.3 -26.59,-28.8 l -13.1,-14.4 -12.31,-15 c -16.86,-19.6 -31.79,-40.4 -46.97,-60.7 -14.05,-21.2 -28.57,-41.8 -41.14,-63.3 -25.8,-42.7 -48.07,-86.4 -66.34,-130.5 -18.58,-44 -33.73,-88.2 -45.14,-131.9 -6.48,-21.7 -10.58,-43.6 -15.48,-64.9 -3.8,-21.5 -7.89,-43 -10.58,-63.5 -11.17,-84 -13.23,-162.4 -7.4,-231.8 5.75,-69.4 16.54,-129.8 28.9,-178.9 12.43,-49 24.79,-87.3 34.35,-112.9 9.38,-25.8 14.85,-39.5 14.85,-39.5 0,0 -1.95,3.2 -5.71,9.2 -3.67,6.1 -9.61,14.8 -16.25,26.9 -13.65,24.1 -33.61,59.6 -53.13,107.8 -19.8,48 -40.85,108.2 -54.98,180 -7.31,35.9 -13.25,74.5 -16.94,115.7 -0.76,10.3 -1.53,20.7 -2.31,31.3 -0.33,10.5 -0.65,21.3 -0.98,32.1 -1,20.5 -0.3,43.3 0.33,66.6 0.55,23.2 2.97,46.1 5.04,69.8 3.17,23.6 5.61,47.8 10.48,72 8.18,48.8 21.54,98.4 38.21,148.5 16.31,50.3 38.55,100.1 64.16,149.5 25.4,49.6 56.28,97.8 91.28,144 l 13.05,17.5 13.89,16.9 c 9.46,11.2 18.28,23 28.52,33.6 10.38,11.2 20.8,22.5 31.26,33.7 9.99,9.9 20.01,19.7 30.06,29.6 45.73,43 93.59,80 146.52,112.7 105.02,65.7 225.62,110 350.02,129.5 31.12,4.7 62.48,7.7 93.87,9.5 15.69,1 31.42,0.9 47.1,1.3 l 5.89,0.1 7.09,-0.2 10.93,-0.3 21.84,-0.6 c 64.88,-2.7 125.52,-12.3 185.91,-27.3 120.16,-29.9 231.64,-84.4 325.48,-154.5 47.07,-35.4 89.43,-73.2 128.21,-115.5 16.82,-18.4 36.9,-42.2 53.06,-64.2 16.56,-22 31.84,-44.6 45.4,-67.8 48.64,-81.4 79.72,-166.8 96.06,-248.5 -1.16,8.1 -2.32,16.1 -3.5,24.3 -5.26,25.5 -11.61,51.3 -18.13,77.6 -30.42,103.9 -84.84,209.3 -163.23,303 l -7.15,9 -8.02,8.3 -16.08,16.6 -16.13,16.7 -8.08,8.5 -2.02,2.1 -0.64,0.6 c -0.25,0.3 -0.56,0.6 -0.53,0.5 l -4.65,4.2 c -12.39,11.2 -24.87,22.4 -37.41,33.7 -12.18,9.9 -24.42,19.8 -36.74,29.7 -51.16,39.4 -106.56,76.3 -165.97,107.3 -59.44,31.1 -122.5,57.5 -188.33,77.7 -65.85,20.2 -134.33,34.2 -204.02,41.9 -17.39,2.2 -34.92,3.4 -52.49,4.4 -17.54,1.4 -35.17,1.6 -52.81,1.8 l -13.24,0.2 h -3.3 l -1.66,0.1 c 0.06,0 -0.28,0 -0.61,0 l -6.49,-0.2 -28.18,-0.9 c -19.57,-0.2 -35.67,-2 -52.98,-3.2 -69.63,-5.8 -140.62,-18.8 -208.64,-38.6 -136.83,-38.7 -265.1,-105.8 -374.69,-193.2 -13.42,-11.3 -26.82,-22.5 -40.18,-33.8 -13,-11.6 -25.54,-23.7 -38.34,-35.5 l -2.39,-2.2 -1.2,-1.1 c -1.45,-1.5 -0.15,-0.1 0.46,0.5 l -4.58,-4.8 -9.5,-10 -18.97,-20 c -12.64,-13.4 -25.23,-26.7 -37.79,-39.9 -13.42,-13.2 -22.86,-26.6 -33.73,-39.8 -10.64,-13.2 -21.24,-26.4 -31.82,-39.5 l -15.9,-19.7 c -5,-6.9 -9.76,-14.1 -14.64,-21.1 -9.73,-14.1 -19.42,-28.1 -29.07,-42.1 -75.26,-113.3 -133.18,-232.9 -173.38,-351.9 -9.16,-30.1 -18.2,-59.8 -27.1,-89 -6.73,-29.8 -13.07,-59.2 -20.06,-88.1 -3.89,-14.4 -5.95,-28.9 -8.14,-43.4 -2.26,-14.4 -4.5,-28.7 -6.72,-42.9 -2.15,-14.1 -4.59,-28.2 -6.48,-42.2 -1.11,-14 -2.21,-27.9 -3.29,-41.7 -11.09,-110.2 -5.47,-212.4 2.54,-302.7 11.1,-89.9 26.31,-168.2 43.24,-231.7 9.22,-31.5 17.37,-59.7 24.21,-84.5 8.25,-24.2 16.17,-44.5 22.15,-61.2 12.06,-33.5 18.48,-51.4 18.48,-51.4 0,0 -8.94,16.8 -25.71,48.1 -8.19,15.8 -18.84,35.2 -30.39,58.4 -10.33,23.7 -21.91,51.2 -34.8,82.1 -3.16,7.7 -6.75,15.6 -9.79,23.9 -2.77,8.3 -5.61,16.9 -8.51,25.7 -5.83,17.6 -11.92,36 -18.27,55.2 -3.1,9.7 -6.63,19.4 -9.54,29.6 -2.45,10.2 -4.93,20.7 -7.47,31.3 -5.05,21.3 -10.29,43.4 -15.7,66.3 -3.08,11.4 -4.68,23.2 -6.58,35.1 -1.89,12 -3.82,24.2 -5.77,36.5 -1.94,12.4 -3.92,24.9 -5.92,37.7 -0.99,6.3 -1.98,12.8 -2.97,19.2 -0.53,6.5 -1.06,13 -1.6,19.6 -2.26,26.4 -4,53.5 -5.99,81.3 -1.42,13.9 -0.91,28 -0.9,42.2 0.07,14.2 0.15,28.7 0.22,43.2 2.02,116.3 14.55,243.8 52.36,373.2 36.14,129.6 91.07,262.5 168.99,388.1 9.92,15.6 19.87,31.3 29.87,47 5.07,7.9 9.87,15.8 15.21,23.6 l 17.35,22.8 c 11.65,15.3 23.33,30.5 35.06,45.9 11.79,15.1 23.44,31.5 35.78,44.3 12.19,13.6 24.42,27.2 36.69,40.9 l 18.42,20.5 9.24,10.3 4.62,5.1 3.1,3.2 1.31,1.3 2.62,2.6 c 14.08,13.5 27.98,27.3 42.38,40.6 14.83,12.9 29.68,25.8 44.57,38.7 121.39,101 266.6,177.4 420.88,221.9 77.44,22 156.11,36.1 236.74,42.4 20.3,1.3 41.7,3.2 59.77,3.1 l 28.19,0.4 7.04,0.1 9.04,-0.1 14.9,-0.5 c 19.86,-0.5 39.69,-1.1 59.4,-3 19.75,-1.4 39.44,-3.1 58.97,-5.9 156.57,-19.3 306.09,-70.8 435.7,-145.4 64.84,-37.4 125.02,-79.7 179.37,-127 13.59,-12.3 27.11,-24.6 40.55,-36.7 11.93,-12 23.79,-23.9 35.58,-35.7 l 4.42,-4.4 2.08,-2.1 1.09,-1.2 2.18,-2.5 8.69,-10 17.27,-19.9 17.1,-19.8 8.49,-9.8 7.6,-10.6 c 19.75,-28.3 41.09,-54.8 56.85,-84.5 8.4,-14.4 16.74,-28.7 25.02,-43 6.86,-14.9 13.67,-29.7 20.42,-44.4 14.48,-28.9 23.46,-59.5 33.99,-88.6 5.64,-14.5 8.8,-29.6 12.63,-44.3 3.69,-14.7 7.35,-29.3 10.97,-43.7 24.8,-116.6 21.51,-226.6 5.75,-320.2 z m 140.98,524.6 c -51.76,123.8 -127.8,236.7 -221.29,332.4 -94,96.7 -203.38,179.2 -321.68,243.7 -118.5,64.4 -246.21,111.7 -378.11,139.1 -263.91,55.5 -543.16,29.9 -792.94,-69.5 -124.8,-49.9 -242.32,-118.1 -347.6,-202 -26.21,-21.1 -51.99,-42.8 -76.58,-65.8 -12.28,-11.1 -24.9,-23.7 -36.02,-34.5 -12.14,-12.5 -25.43,-25.4 -36.62,-37.6 -45.8,-48.5 -90.79,-101 -131.6,-155.1 -81.76,-108.9 -151.1,-227.4 -204.9,-352.8 -54.18,-125.3 -92.95,-257.3 -116.89,-392 -47.69,-269.6 -30.13,-551 49.49,-814.8 73.95,-243.8 202.17,-471.6 373.36,-663.3 17.89,82.6 46.93,162.7 87.29,236.5 50.67,93.3 117.73,176.5 194.66,247.7 76.93,71.3 163.24,131.2 254.4,181.2 45.72,24.7 92.71,46.9 140.64,66.7 23.97,9.9 48.18,19.1 72.65,27.6 6.56,2.3 13.16,4.4 19.73,6.6 -7.95,7 -16.04,13.8 -23.75,21 -13.59,12.7 -26.69,25.7 -39.38,39.5 -13.11,13.4 -25.05,27.8 -37.16,42.1 -23.32,29.3 -45.51,59.6 -64.47,92 -77.21,128.5 -115.27,279.6 -109.16,428.7 5.59,149.2 55.5,296.4 142.22,417.5 10.41,15.5 22.42,29.7 33.85,44.4 12.42,14.2 25.12,29.5 37.26,41.6 25.24,26.8 53.69,52.4 83.93,74.5 60.54,44.7 129.16,78.2 201.43,98.5 144.58,41.2 303.34,26.6 437.87,-38.7 33.67,-16.2 65.85,-35.5 95.86,-57.7 14.96,-11.2 29.51,-22.5 43.88,-35.5 7.5,-6.3 13.9,-12.5 20.15,-18.6 l 9.54,-9.2 c 4.32,-4.2 6.76,-7.1 10.23,-10.7 51.77,-54.8 90.88,-121.5 113.01,-193.5 22.64,-71.8 27.95,-148.5 17.12,-222.6 -11.33,-74.1 -39.01,-145.7 -81.62,-207.2 -10.75,-15.4 -21.73,-30 -34.51,-44.5 l -9.44,-10.7 -9.21,-9.6 -4.61,-4.7 -2.3,-2.4 -3,-2.9 -10.33,-9.7 c -28.04,-25.2 -59.46,-46.9 -93.48,-63.2 -67.81,-33.1 -144.9,-46.2 -219.51,-37.8 -74.65,8.1 -146.76,38 -204.9,85.1 -7.28,5.7 -14.73,12.5 -21.54,18.6 l -9.55,9.2 -2.39,2.3 c -1.56,1.5 -1.82,1.9 -2.8,2.9 l -4.85,5.2 c -12.85,13.8 -24.53,28.8 -34.8,44.7 -20.5,31.8 -35.11,67.3 -43.27,104.1 -16.6,73.6 -5.64,152.7 29.59,219 17.56,33 41.35,63.4 69.22,88.1 28.54,25 62.63,43.6 99.04,53.9 72.8,20.9 154.32,7.7 216.03,-35.7 7.77,-5.4 15.06,-11 22.35,-17.4 3.79,-3.2 7.1,-6.3 10.17,-9.4 1.72,-1.7 2.9,-2.7 5.06,-5 l 4.88,-5.2 c 12.76,-14.1 23.68,-29.9 32.1,-46.9 17.02,-34 24.17,-72.7 20.69,-110.4 -3.33,-37.7 -17.34,-74.3 -39.95,-104.5 -5.51,-7.2 -12.34,-15.3 -18.35,-21.2 -7.08,-6.7 -13.89,-13.2 -21.86,-18.6 -15.48,-11.1 -32.87,-19.6 -51.17,-24.9 -36.7,-10.4 -76.69,-7.6 -111.47,7.5 -4.26,2.1 -8.62,3.9 -12.79,6.2 l -12.18,7.3 c -7.95,5.6 -15.96,11.6 -21.97,17.6 -14.16,13.1 -25.36,29.1 -32.74,46.8 -14.92,35.4 -13.01,77 4.23,110.9 4.24,8.5 9.58,16.5 15.77,24.3 l 8.97,9.8 c 4.3,3.8 7.16,6.9 11.33,9.7 15.37,11.8 33.96,18.9 53.08,21 19.07,1.8 38.75,-1.1 56.06,-9.3 8.71,-3.8 16.84,-9.4 24.37,-15.6 l 4.88,-4.5 c 0.56,-0.5 1.99,-1.7 2.73,-2.6 l 2.43,-2.8 c 3.33,-3.5 6.08,-7.5 8.71,-11.6 10.41,-16.5 14.52,-36.5 12.33,-55.7 -1.93,-19 -11.78,-37.9 -24.7,-50.7 l -10.23,9.2 c 6.47,6.8 10.25,12.5 13.96,20 3.43,7.3 5.73,15.1 6.46,23.1 1.56,16 -2.09,32.5 -10.85,45.9 -18.16,27.4 -51.96,41.5 -84.25,37.7 -16.07,-2 -31.51,-8.2 -44.17,-18.2 -3.21,-2.1 -6.33,-5.7 -8.77,-7.6 l -8.72,-9.9 c -4.64,-6.2 -9.15,-13 -12.72,-20.5 -14.34,-29.3 -15.39,-64.9 -2.25,-94.7 6.45,-14.9 16.24,-28.3 28.2,-39.1 6.69,-6.4 13.06,-10.7 19.58,-15.2 l 10.67,-6.2 c 3.65,-1.9 7.47,-3.5 11.18,-5.2 30.34,-12.6 64.94,-14.5 96.3,-5.1 15.63,4.8 30.37,12.3 43.43,22 6.69,4.6 12.59,10.5 18.29,16 6.47,6.6 10.86,12.3 16.06,19.1 19.42,26.8 31.12,59 33.53,91.8 2.53,32.9 -4.22,66.3 -19.35,95.4 -7.48,14.6 -17.08,28 -28.25,40 l -4.27,4.4 c -0.85,1 -3.01,2.9 -4.46,4.3 -3.26,3.1 -6.45,6 -9.48,8.4 -6,5.2 -12.91,10.3 -19.72,14.9 -54.98,37.4 -126.76,47.8 -189.9,28.6 -31.57,-9.5 -60.83,-26.1 -85.23,-48.1 -24.68,-22.6 -44.65,-49.2 -60.06,-78.9 -30.25,-59.2 -38.8,-129.1 -23.22,-193.4 7.65,-32.2 20.88,-63 39.15,-90.4 9.17,-13.7 19.53,-26.5 30.91,-38.5 l 4.29,-4.4 1.81,-1.9 2.43,-2.2 9.68,-9.1 c 6.47,-5.6 12.17,-10.7 18.92,-15.8 52.5,-41.2 116.88,-66.7 183.08,-72.9 66.17,-6.4 133.93,6.3 192.87,36.2 29.58,14.8 56.73,34.2 80.93,56.6 l 8.91,8.6 1.78,1.7 2.27,2.4 4.54,4.9 9.07,9.7 7.89,9.3 c 10.51,12.2 20.66,26.1 29.9,39.8 37.25,55.5 60.82,119.7 69.93,185.6 8.59,66 2.84,134 -18.11,196.9 -20.48,63.2 -55.7,121.1 -101.86,168.5 -2.69,2.8 -6.16,6.5 -8.2,8.4 l -9.68,9.1 c -6.49,6.2 -12.95,12.1 -19.1,17.1 -12.12,10.5 -25.64,20.8 -39.16,30.6 -27.21,19.5 -56.27,36.3 -86.58,50.3 -121.15,56.5 -262.66,67.2 -390.28,29.4 -63.82,-18.7 -124.01,-49 -176.96,-89 -26.66,-20 -50.84,-42.2 -73.77,-67.1 -12.84,-13.1 -22.31,-25.4 -33.16,-37.8 -10.05,-13.4 -20.85,-26.4 -30.03,-40.4 -76.88,-110 -120.09,-242.7 -123.58,-376.5 -3.94,-133.8 31.73,-268.2 101.66,-381.6 17.15,-28.6 37.25,-55.3 58.22,-81.1 10.95,-12.6 21.65,-25.3 33.48,-37.1 11.37,-12.1 23.58,-23.9 35.95,-35.3 12.43,-11.3 25.17,-22.4 38.22,-33 l 9.84,-8 9.76,-7.3 21.18,-16 c 13.93,-9.7 26.86,-18.8 41.04,-27.8 14.38,-8.8 28.44,-18 43.33,-25.9 58.64,-32.9 121.05,-59 185.74,-77.2 64.55,-18.7 131.3,-29.4 198.35,-32.5 134.13,-6.7 269.34,18.7 391.85,72.4 61.17,27 119.04,61.3 172.52,101.3 26.38,20.5 52.2,41.8 76.16,65.1 l 18.04,17.4 17.25,18.3 c 12.13,12.9 24.66,25.9 34.68,38.4 21.48,24.6 42.26,51.6 62.03,78.9 9.45,14 19.35,27.6 28.47,41.8 l 26.49,43.1 c 33.91,58.3 62.14,119.9 84.57,183.4 44.84,127 65.64,262.4 61.53,396.7 -4.01,134.4 -33.01,267.9 -85.16,391.3 z"
         id="path859" /></clipPath><linearGradient
       x1="0"
       y1="0"
       x2="1"
       y2="0"
       gradientUnits="userSpaceOnUse"
       gradientTransform="matrix(2776.2,0,0,-2776.2,4690.51,4078.3)"
       spreadMethod="pad"
       id="linearGradient867"><stop
         style="stop-opacity:1;stop-color:#f5d70d"
         offset="0"
         id="stop863" /><stop
         style="stop-opacity:1;stop-color:#ca3f2e"
         offset="1"
         id="stop865" /></linearGradient><clipPath
       clipPathUnits="userSpaceOnUse"
       id="clipPath877"><path
         d="m 7404.67,3954.4 c -22.43,-63.5 -50.66,-125.1 -84.57,-183.4 l -26.49,-43.1 c -9.12,-14.2 -19.02,-27.8 -28.47,-41.8 -19.77,-27.3 -40.55,-54.3 -62.03,-78.9 -10.02,-12.5 -22.55,-25.5 -34.68,-38.4 l -17.25,-18.3 -18.04,-17.4 c -23.96,-23.3 -49.78,-44.6 -76.16,-65.1 -53.48,-40 -111.35,-74.3 -172.52,-101.3 -122.51,-53.7 -257.72,-79.1 -391.85,-72.4 -67.05,3.1 -133.8,13.8 -198.35,32.5 -64.69,18.2 -127.1,44.3 -185.74,77.2 -14.89,7.9 -28.95,17.1 -43.33,25.9 -14.18,9 -27.11,18.1 -41.04,27.8 l -21.18,16 -9.76,7.3 -9.84,8 c -13.05,10.6 -25.79,21.7 -38.22,33 -12.37,11.4 -24.58,23.2 -35.95,35.3 -11.83,11.8 -22.53,24.5 -33.48,37.1 -20.97,25.8 -41.07,52.5 -58.22,81.1 -69.93,113.4 -105.6,247.8 -101.66,381.6 3.49,133.8 46.7,266.5 123.58,376.5 9.18,14 19.98,27 30.03,40.4 10.85,12.4 20.32,24.7 33.16,37.8 22.93,24.9 47.11,47.1 73.77,67.1 52.95,40 113.14,70.3 176.96,89 127.62,37.8 269.13,27.1 390.28,-29.4 30.31,-14 59.37,-30.8 86.58,-50.3 13.52,-9.8 27.04,-20.1 39.16,-30.6 6.15,-5 12.61,-10.9 19.1,-17.1 l 9.68,-9.1 c 2.04,-1.9 5.51,-5.6 8.2,-8.4 46.16,-47.4 81.38,-105.3 101.86,-168.5 20.95,-62.9 26.7,-130.9 18.11,-196.9 -9.11,-65.9 -32.68,-130.1 -69.93,-185.6 -9.24,-13.7 -19.39,-27.6 -29.9,-39.8 l -7.89,-9.3 -9.07,-9.7 -4.54,-4.9 -2.27,-2.4 -1.78,-1.7 -8.91,-8.6 c -24.2,-22.4 -51.35,-41.8 -80.93,-56.6 -58.94,-29.9 -126.7,-42.6 -192.87,-36.2 -66.2,6.2 -130.58,31.7 -183.08,72.9 -6.75,5.1 -12.45,10.2 -18.92,15.8 l -9.68,9.1 -2.43,2.2 -1.81,1.9 -4.29,4.4 c -11.38,12 -21.74,24.8 -30.91,38.5 -18.27,27.4 -31.5,58.2 -39.15,90.4 -15.58,64.3 -7.03,134.2 23.22,193.4 15.41,29.7 35.38,56.3 60.06,78.9 24.4,22 53.66,38.6 85.23,48.1 63.14,19.2 134.92,8.8 189.9,-28.6 6.81,-4.6 13.72,-9.7 19.72,-14.9 3.03,-2.4 6.22,-5.3 9.48,-8.4 1.45,-1.4 3.61,-3.3 4.46,-4.3 l 4.27,-4.4 c 11.17,-12 20.77,-25.4 28.25,-40 15.13,-29.1 21.88,-62.5 19.35,-95.4 -2.41,-32.8 -14.11,-65 -33.53,-91.8 -5.2,-6.8 -9.59,-12.5 -16.06,-19.1 -5.7,-5.5 -11.6,-11.4 -18.29,-16 -13.06,-9.7 -27.8,-17.2 -43.43,-22 -31.36,-9.4 -65.96,-7.5 -96.3,5.1 -3.71,1.7 -7.53,3.3 -11.18,5.2 l -10.67,6.2 c -6.52,4.5 -12.89,8.8 -19.58,15.2 -11.96,10.8 -21.75,24.2 -28.2,39.1 -13.14,29.8 -12.09,65.4 2.25,94.7 3.57,7.5 8.08,14.3 12.72,20.5 l 8.72,9.9 c 2.44,1.9 5.56,5.5 8.77,7.6 12.66,10 28.1,16.2 44.17,18.2 32.29,3.8 66.09,-10.3 84.25,-37.7 8.76,-13.4 12.41,-29.9 10.85,-45.9 -0.73,-8 -3.03,-15.8 -6.46,-23.1 -3.71,-7.5 -7.49,-13.2 -13.96,-20 l 10.23,-9.2 c 12.92,12.8 22.77,31.7 24.7,50.7 2.19,19.2 -1.92,39.2 -12.33,55.7 -2.63,4.1 -5.38,8.1 -8.71,11.6 l -2.43,2.8 c -0.74,0.9 -2.17,2.1 -2.73,2.6 l -4.88,4.5 c -7.53,6.2 -15.66,11.8 -24.37,15.6 -17.31,8.2 -36.99,11.1 -56.06,9.3 -19.12,-2.1 -37.71,-9.2 -53.08,-21 -4.17,-2.8 -7.03,-5.9 -11.33,-9.7 l -8.97,-9.8 c -6.19,-7.8 -11.53,-15.8 -15.77,-24.3 -17.24,-33.9 -19.15,-75.5 -4.23,-110.9 7.38,-17.7 18.58,-33.7 32.74,-46.8 6.01,-6 14.02,-12 21.97,-17.6 l 12.18,-7.3 c 4.17,-2.3 8.53,-4.1 12.79,-6.2 34.78,-15.1 74.77,-17.9 111.47,-7.5 18.3,5.3 35.69,13.8 51.17,24.9 7.97,5.4 14.78,11.9 21.86,18.6 6.01,5.9 12.84,14 18.35,21.2 22.61,30.2 36.62,66.8 39.95,104.5 3.48,37.7 -3.67,76.4 -20.69,110.4 -8.42,17 -19.34,32.8 -32.1,46.9 l -4.88,5.2 c -2.16,2.3 -3.34,3.3 -5.06,5 -3.07,3.1 -6.38,6.2 -10.17,9.4 -7.29,6.4 -14.58,12 -22.35,17.4 -61.71,43.4 -143.23,56.6 -216.03,35.7 -36.41,-10.3 -70.5,-28.9 -99.04,-53.9 -27.87,-24.7 -51.66,-55.1 -69.22,-88.1 -35.23,-66.3 -46.19,-145.4 -29.59,-219 8.16,-36.8 22.77,-72.3 43.27,-104.1 10.27,-15.9 21.95,-30.9 34.8,-44.7 l 4.85,-5.2 c 0.98,-1 1.24,-1.4 2.8,-2.9 l 2.39,-2.3 9.55,-9.2 c 6.81,-6.1 14.26,-12.9 21.54,-18.6 58.14,-47.1 130.25,-77 204.9,-85.1 74.61,-8.4 151.7,4.7 219.51,37.8 34.02,16.3 65.44,38 93.48,63.2 l 10.33,9.7 3,2.9 2.3,2.4 4.61,4.7 9.21,9.6 9.44,10.7 c 12.78,14.5 23.76,29.1 34.51,44.5 42.61,61.5 70.29,133.1 81.62,207.2 10.83,74.1 5.52,150.8 -17.12,222.6 -22.13,72 -61.24,138.7 -113.01,193.5 -3.47,3.6 -5.91,6.5 -10.23,10.7 l -9.54,9.2 c -6.25,6.1 -12.65,12.3 -20.15,18.6 -14.37,13 -28.92,24.3 -43.88,35.5 -30.01,22.2 -62.19,41.5 -95.86,57.7 -134.53,65.3 -293.29,79.9 -437.87,38.7 -72.27,-20.3 -140.89,-53.8 -201.43,-98.5 -30.24,-22.1 -58.69,-47.7 -83.93,-74.5 -12.14,-12.1 -24.84,-27.4 -37.26,-41.6 -11.43,-14.7 -23.44,-28.9 -33.85,-44.4 -86.72,-121.1 -136.63,-268.3 -142.22,-417.5 -6.11,-149.1 31.95,-300.2 109.16,-428.7 18.96,-32.4 41.15,-62.7 64.47,-92 12.11,-14.3 24.05,-28.7 37.16,-42.1 12.69,-13.8 25.79,-26.8 39.38,-39.5 7.71,-7.2 15.8,-14 23.75,-21 -6.57,-2.2 -13.17,-4.3 -19.73,-6.6 -24.47,-8.5 -48.68,-17.7 -72.65,-27.6 -47.93,-19.8 -94.92,-42 -140.64,-66.7 -91.16,-50 -177.47,-109.9 -254.4,-181.2 -76.93,-71.2 -143.99,-154.4 -194.66,-247.7 -40.36,-73.8 -69.4,-153.9 -87.29,-236.5 -171.19,191.7 -299.41,419.5 -373.36,663.3 -79.62,263.8 -97.18,545.2 -49.49,814.8 23.94,134.7 62.71,266.7 116.89,392 53.8,125.4 123.14,243.9 204.9,352.8 40.81,54.1 85.8,106.6 131.6,155.1 11.19,12.2 24.48,25.1 36.62,37.6 11.12,10.8 23.74,23.4 36.02,34.5 24.59,23 50.37,44.7 76.58,65.8 105.28,83.9 222.8,152.1 347.6,202 249.78,99.4 529.03,125 792.94,69.5 131.9,-27.4 259.61,-74.7 378.11,-139.1 118.3,-64.5 227.68,-147 321.68,-243.7 93.49,-95.7 169.53,-208.6 221.29,-332.4 52.15,-123.4 81.15,-256.9 85.16,-391.3 4.11,-134.3 -16.69,-269.7 -61.53,-396.7 z m 88.05,834.4 c -55.9,138.2 -138.58,265.6 -241.13,374 -202.89,215.4 -472.16,368.5 -762.7,430.5 -289.85,63.3 -599.17,39.5 -875.04,-72.3 -138.09,-55.1 -267.54,-131.6 -382.59,-225.5 -28.69,-23.5 -56.85,-47.7 -83.68,-73.3 -13.85,-12.8 -26.13,-25.3 -40.28,-39.3 -12.39,-13 -24.36,-24.9 -37.1,-38.8 -51.04,-54.8 -96.94,-111 -140.43,-170.6 -172.66,-237.7 -287.98,-516.6 -330.87,-806 -43.48,-289.2 -18.08,-588.1 76.03,-863.4 46.99,-137.5 109.42,-269.7 187.71,-391.5 77.77,-122.2 170.73,-234.1 274.29,-334.2 l 47.79,-46.1 6.85,64.9 c 10.42,98.7 37.42,195.9 81.94,285.3 44.26,89.5 104.83,171.3 176.26,242.6 71.39,71.6 153.1,133.2 240.48,185.6 43.59,26.4 88.7,50.4 134.95,72.2 23.12,10.8 46.55,21.1 70.26,30.6 9.09,3.7 18.29,7.2 27.48,10.7 1.35,-1.2 2.61,-2.4 3.97,-3.6 l 10.73,-8.8 11.32,-8.8 21,-16.2 c 14.93,-10.7 30.86,-22.2 46.39,-32.3 15.73,-9.9 31.17,-20.2 47.5,-29.1 64.35,-37.1 133.04,-66.8 204.4,-87.8 71.21,-21.5 145,-34.2 219.29,-38.5 148.61,-9.1 299.27,17.3 436.72,75.7 68.62,29.4 133.78,66.9 194.08,111 29.79,22.6 58.9,46.1 86,71.8 l 20.37,19.3 19.36,20 c 12.26,12.8 24.48,25.1 36.96,40 198.84,222.3 306.1,519.5 300.45,816.9 -2.47,148.6 -32.57,296.9 -88.76,435 z"
         id="path875" /></clipPath><linearGradient
       x1="0"
       y1="0"
       x2="1"
       y2="0"
       gradientUnits="userSpaceOnUse"
       gradientTransform="matrix(3003.39,0,0,-3003.39,4578.31,4080)"
       spreadMethod="pad"
       id="linearGradient883"><stop
         style="stop-opacity:1;stop-color:#463420"
         offset="0"
         id="stop879" /><stop
         style="stop-opacity:1;stop-color:#411321"
         offset="1"
         id="stop881" /></linearGradient><clipPath
       clipPathUnits="userSpaceOnUse"
       id="clipPath893"><path
         d="m 7223.34,4581.7 c -3.83,14.7 -6.99,29.8 -12.63,44.3 -10.53,29.1 -19.51,59.7 -33.99,88.6 -6.75,14.7 -13.56,29.5 -20.42,44.4 -8.28,14.3 -16.62,28.6 -25.02,43 -15.76,29.7 -37.1,56.2 -56.85,84.5 l -7.6,10.6 -8.49,9.8 -17.1,19.8 -17.27,19.9 -8.69,10 -2.18,2.5 -1.09,1.2 -2.08,2.1 -4.42,4.4 c -11.79,11.8 -23.65,23.7 -35.58,35.7 -13.44,12.1 -26.96,24.4 -40.55,36.7 -54.35,47.3 -114.53,89.6 -179.37,127 -129.61,74.6 -279.13,126.1 -435.7,145.4 -19.53,2.8 -39.22,4.5 -58.97,5.9 -19.71,1.9 -39.54,2.5 -59.4,3 l -14.9,0.5 -9.04,0.1 -7.04,-0.1 -28.19,-0.4 c -18.07,0.1 -39.47,-1.8 -59.77,-3.1 -80.63,-6.3 -159.3,-20.4 -236.74,-42.4 -154.28,-44.5 -299.49,-120.9 -420.88,-221.9 -14.89,-12.9 -29.74,-25.8 -44.57,-38.7 -14.4,-13.3 -28.3,-27.1 -42.38,-40.6 l -2.62,-2.6 -1.31,-1.3 -3.1,-3.2 -4.62,-5.1 -9.24,-10.3 -18.42,-20.5 c -12.27,-13.7 -24.5,-27.3 -36.69,-40.9 -12.34,-12.8 -23.99,-29.2 -35.78,-44.3 -11.73,-15.4 -23.41,-30.6 -35.06,-45.9 l -17.35,-22.8 c -5.34,-7.8 -10.14,-15.7 -15.21,-23.6 -10,-15.7 -19.95,-31.4 -29.87,-47 -77.92,-125.6 -132.85,-258.5 -168.99,-388.1 -37.81,-129.4 -50.34,-256.9 -52.36,-373.2 -0.07,-14.5 -0.15,-29 -0.22,-43.2 -0.01,-14.2 -0.52,-28.3 0.9,-42.2 1.99,-27.8 3.73,-54.9 5.99,-81.3 0.54,-6.6 1.07,-13.1 1.6,-19.6 0.99,-6.4 1.98,-12.9 2.97,-19.2 2,-12.8 3.98,-25.3 5.92,-37.7 1.95,-12.3 3.88,-24.5 5.77,-36.5 1.9,-11.9 3.5,-23.7 6.58,-35.1 5.41,-22.9 10.65,-45 15.7,-66.3 2.54,-10.6 5.02,-21.1 7.47,-31.3 2.91,-10.2 6.44,-19.9 9.54,-29.6 6.35,-19.2 12.44,-37.6 18.27,-55.2 2.9,-8.8 5.74,-17.4 8.51,-25.7 3.04,-8.3 6.63,-16.2 9.79,-23.9 12.89,-30.9 24.47,-58.4 34.8,-82.1 11.55,-23.2 22.2,-42.6 30.39,-58.4 16.77,-31.3 25.71,-48.1 25.71,-48.1 0,0 -6.42,17.9 -18.48,51.4 -5.98,16.7 -13.9,37 -22.15,61.2 -6.84,24.8 -14.99,53 -24.21,84.5 -16.93,63.5 -32.14,141.8 -43.24,231.7 -8.01,90.3 -13.63,192.5 -2.54,302.7 1.08,13.8 2.18,27.7 3.29,41.7 1.89,14 4.33,28.1 6.48,42.2 2.22,14.2 4.46,28.5 6.72,42.9 2.19,14.5 4.25,29 8.14,43.4 6.99,28.9 13.33,58.3 20.06,88.1 8.9,29.2 17.94,58.9 27.1,89 40.2,119 98.12,238.6 173.38,351.9 9.65,14 19.34,28 29.07,42.1 4.88,7 9.64,14.2 14.64,21.1 l 15.9,19.7 c 10.58,13.1 21.18,26.3 31.82,39.5 10.87,13.2 20.31,26.6 33.73,39.8 12.56,13.2 25.15,26.5 37.79,39.9 l 18.97,20 9.5,10 4.58,4.8 c -0.61,-0.6 -1.91,-2 -0.46,-0.5 l 1.2,1.1 2.39,2.2 c 12.8,11.8 25.34,23.9 38.34,35.5 13.36,11.3 26.76,22.5 40.18,33.8 109.59,87.4 237.86,154.5 374.69,193.2 68.02,19.8 139.01,32.8 208.64,38.6 17.31,1.2 33.41,3 52.98,3.2 l 28.18,0.9 6.49,0.2 c 0.33,0 0.67,0 0.61,0 l 1.66,-0.1 h 3.3 l 13.24,-0.2 c 17.64,-0.2 35.27,-0.4 52.81,-1.8 17.57,-1 35.1,-2.2 52.49,-4.4 69.69,-7.7 138.17,-21.7 204.02,-41.9 65.83,-20.2 128.89,-46.6 188.33,-77.7 59.41,-31 114.81,-67.9 165.97,-107.3 12.32,-9.9 24.56,-19.8 36.74,-29.7 12.54,-11.3 25.02,-22.5 37.41,-33.7 l 4.65,-4.2 c -0.03,0.1 0.28,-0.2 0.53,-0.5 l 0.64,-0.6 2.02,-2.1 8.08,-8.5 16.13,-16.7 16.08,-16.6 8.02,-8.3 7.15,-9 c 78.39,-93.7 132.81,-199.1 163.23,-303 6.52,-26.3 12.87,-52.1 18.13,-77.6 1.18,-8.2 2.34,-16.2 3.5,-24.3 -16.34,81.7 -47.42,167.1 -96.06,248.5 -13.56,23.2 -28.84,45.8 -45.4,67.8 -16.16,22 -36.24,45.8 -53.06,64.2 -38.78,42.3 -81.14,80.1 -128.21,115.5 -93.84,70.1 -205.32,124.6 -325.48,154.5 -60.39,15 -121.03,24.6 -185.91,27.3 l -21.84,0.6 -10.93,0.3 -7.09,0.2 -5.89,-0.1 c -15.68,-0.4 -31.41,-0.3 -47.1,-1.3 -31.39,-1.8 -62.75,-4.8 -93.87,-9.5 -124.4,-19.5 -245,-63.8 -350.02,-129.5 -52.93,-32.7 -100.79,-69.7 -146.52,-112.7 -10.05,-9.9 -20.07,-19.7 -30.06,-29.6 -10.46,-11.2 -20.88,-22.5 -31.26,-33.7 -10.24,-10.6 -19.06,-22.4 -28.52,-33.6 l -13.89,-16.9 -13.05,-17.5 c -35,-46.2 -65.88,-94.4 -91.28,-144 -25.61,-49.4 -47.85,-99.2 -64.16,-149.5 -16.67,-50.1 -30.03,-99.7 -38.21,-148.5 -4.87,-24.2 -7.31,-48.4 -10.48,-72 -2.07,-23.7 -4.49,-46.6 -5.04,-69.8 -0.63,-23.3 -1.33,-46.1 -0.33,-66.6 0.33,-10.8 0.65,-21.6 0.98,-32.1 0.78,-10.6 1.55,-21 2.31,-31.3 3.69,-41.2 9.63,-79.8 16.94,-115.7 14.13,-71.8 35.18,-132 54.98,-180 19.52,-48.2 39.48,-83.7 53.13,-107.8 6.64,-12.1 12.58,-20.8 16.25,-26.9 3.76,-6 5.71,-9.2 5.71,-9.2 0,0 -5.47,13.7 -14.85,39.5 -9.56,25.6 -21.92,63.9 -34.35,112.9 -12.36,49.1 -23.15,109.5 -28.9,178.9 -5.83,69.4 -3.77,147.8 7.4,231.8 2.69,20.5 6.78,42 10.58,63.5 4.9,21.3 9,43.2 15.48,64.9 11.41,43.7 26.56,87.9 45.14,131.9 18.27,44.1 40.54,87.8 66.34,130.5 12.57,21.5 27.09,42.1 41.14,63.3 15.18,20.3 30.11,41.1 46.97,60.7 l 12.31,15 13.1,14.4 c 8.93,9.5 17.17,19.6 26.59,28.8 8.83,8.9 17.69,17.9 26.57,26.9 10.33,9.4 20.69,19 31.08,28.5 37.83,32.8 81.7,64.8 127.19,91.7 91.66,54 194.87,91.5 301.68,107.4 26.67,4.1 53.52,7 80.45,8.7 13.45,1 26.95,0.9 40.41,1.4 l 4.81,0.2 1.34,-0.1 h 2.74 l 10.93,-0.3 21.84,-0.4 c 51.51,-2.2 106.31,-8.8 157.83,-20.7 51.87,-12 102.27,-28.7 150.27,-49.5 47.98,-20.8 93.28,-46.3 135.68,-74.7 42.23,-28.2 81.64,-61.2 116.63,-94.3 9.21,-9.2 19.41,-18.8 26.65,-27.1 7.87,-8.6 15.89,-16.7 23.49,-26.3 7.67,-9.2 15.55,-18.2 22.48,-27.8 7.1,-9.5 14.57,-18.7 20.99,-28.5 53.81,-76.8 90.19,-160 110.84,-240.6 10.52,-40.3 16.84,-80 20.97,-118.1 0.85,-9.6 1.68,-19 2.5,-28.4 0.63,-8.4 0.9,-19 1.36,-28.1 0.12,-9 0.24,-17.9 0.35,-26.6 -0.21,-8.8 -0.41,-17.6 -0.61,-26.2 -3.11,-68.9 -14.26,-129.1 -27.44,-177.7 -13.77,-48.4 -28.07,-85.9 -39.16,-110.9 -5.44,-12.6 -9.88,-22.1 -12.95,-28.5 -3.03,-6.5 -4.59,-9.8 -4.59,-9.8 0,0 2.17,3 6.38,8.7 0.23,0.3 0.53,0.7 0.76,1 -4.86,-8.2 -7.41,-12.5 -7.41,-12.5 0,0 11.94,14.8 34.32,42.4 5.35,7.1 12.22,14.3 18.11,23.6 6.06,9.2 12.69,19.3 19.84,30.2 6.9,11 15.53,22.4 22.59,35.6 6.93,13.3 14.29,27.4 22.07,42.3 29.11,60.3 61.43,137.5 76.06,231.8 15.76,93.6 19.05,203.6 -5.75,320.2 -3.62,14.4 -7.28,29 -10.97,43.7 z"
         id="path891" /></clipPath><linearGradient
       x1="0"
       y1="0"
       x2="1"
       y2="0"
       gradientUnits="userSpaceOnUse"
       gradientTransform="matrix(2350.92,0,0,-2350.92,4901.49,4265.4)"
       spreadMethod="pad"
       id="linearGradient899"><stop
         style="stop-opacity:1;stop-color:#463420"
         offset="0"
         id="stop895" /><stop
         style="stop-opacity:1;stop-color:#411321"
         offset="1"
         id="stop897" /></linearGradient><clipPath
       clipPathUnits="userSpaceOnUse"
       id="clipPath909"><path
         d="m 7450.1,12310.1 c -23.2,-65.7 -52.4,-129.4 -87.47,-189.7 l -27.4,-44.6 c -9.43,-14.6 -19.67,-28.8 -29.45,-43.2 -20.45,-28.3 -41.93,-56.2 -64.15,-81.6 -10.37,-12.9 -23.33,-26.4 -35.87,-39.7 l -17.85,-19 -18.66,-18 c -24.78,-24.1 -51.48,-46.1 -78.77,-67.3 -55.31,-41.4 -115.16,-76.8 -178.43,-104.8 -126.71,-55.5 -266.56,-81.8 -405.29,-74.9 -69.35,3.2 -138.39,14.3 -205.15,33.6 -66.91,18.8 -131.46,45.9 -192.11,80 -15.4,8.1 -29.94,17.6 -44.81,26.7 -14.67,9.3 -28.04,18.7 -42.45,28.8 l -21.91,16.5 -10.1,7.6 -10.17,8.2 c -13.5,11 -26.68,22.4 -39.53,34.2 -12.8,11.7 -25.42,23.9 -37.19,36.5 -12.23,12.1 -23.3,25.3 -34.63,38.3 -21.69,26.7 -42.48,54.3 -60.22,83.9 -72.32,117.3 -109.22,256.3 -105.14,394.7 3.61,138.4 48.31,275.6 127.82,389.4 9.49,14.6 20.66,27.9 31.06,41.8 11.22,12.9 21.02,25.6 34.3,39.1 23.72,25.8 48.72,48.8 76.3,69.4 54.76,41.4 117.02,72.8 183.02,92.1 132.01,39.1 278.37,27.9 403.67,-30.4 31.35,-14.5 61.41,-31.9 89.55,-52.1 13.98,-10.1 27.97,-20.7 40.51,-31.6 6.36,-5.1 13.03,-11.3 19.74,-17.7 l 10.02,-9.4 c 2.11,-2 5.7,-5.9 8.48,-8.7 47.75,-49 84.17,-109 105.35,-174.2 21.68,-65.2 27.62,-135.4 18.73,-203.7 -9.41,-68.2 -33.8,-134.6 -72.32,-192 -9.56,-14.2 -20.05,-28.5 -30.93,-41.2 l -8.16,-9.6 -9.38,-10 -4.7,-5.1 -2.34,-2.5 -1.84,-1.7 -9.22,-8.9 c -25.03,-23.2 -53.11,-43.3 -83.71,-58.5 -60.96,-31 -131.04,-44.1 -199.48,-37.5 -68.47,6.4 -135.06,32.8 -189.36,75.4 -6.98,5.3 -12.88,10.6 -19.57,16.3 l -10.01,9.4 -2.51,2.4 -1.88,1.9 -4.43,4.6 c -11.77,12.3 -22.49,25.6 -31.97,39.8 -18.9,28.3 -32.58,60.2 -40.5,93.4 -16.11,66.6 -7.27,138.9 24.03,200.1 15.93,30.7 36.58,58.2 62.12,81.6 25.23,22.8 55.49,39.9 88.14,49.7 65.31,19.9 139.55,9.2 196.42,-29.5 7.04,-4.8 14.18,-10.1 20.39,-15.4 3.13,-2.5 6.44,-5.5 9.81,-8.8 1.49,-1.4 3.74,-3.4 4.61,-4.4 l 4.42,-4.5 c 11.55,-12.4 21.48,-26.3 29.21,-41.4 15.65,-30.1 22.64,-64.7 20.02,-98.6 -2.5,-34 -14.6,-67.3 -34.68,-95 -5.38,-7.1 -9.92,-12.9 -16.61,-19.8 -5.89,-5.6 -12,-11.8 -18.92,-16.5 -13.51,-10.1 -28.75,-17.8 -44.92,-22.8 -32.43,-9.7 -68.22,-7.8 -99.6,5.3 -3.84,1.8 -7.79,3.4 -11.56,5.3 l -11.04,6.4 c -6.74,4.7 -13.34,9.2 -20.25,15.8 -12.37,11.1 -22.5,25.1 -29.17,40.4 -13.58,30.8 -12.5,67.7 2.33,98 3.69,7.7 8.36,14.7 13.16,21.2 l 9.01,10.2 c 2.52,2 5.76,5.7 9.07,7.9 13.1,10.3 29.06,16.8 45.69,18.8 33.39,4 68.36,-10.7 87.14,-39 9.06,-13.8 12.83,-30.9 11.22,-47.4 -0.75,-8.3 -3.13,-16.4 -6.69,-23.9 -3.83,-7.8 -7.74,-13.7 -14.43,-20.7 l 10.58,-9.6 c 13.37,13.3 23.55,32.9 25.54,52.5 2.27,19.8 -1.98,40.6 -12.75,57.6 -2.72,4.2 -5.55,8.4 -9,12.1 l -2.51,2.8 c -0.78,0.9 -2.25,2.2 -2.82,2.7 l -5.06,4.7 c -7.78,6.3 -16.2,12.1 -25.2,16 -17.91,8.6 -38.27,11.6 -57.99,9.7 -19.77,-2.1 -39,-9.6 -54.9,-21.7 -4.31,-2.9 -7.26,-6.1 -11.71,-10 l -9.28,-10.2 c -6.4,-8.1 -11.93,-16.3 -16.32,-25.1 -17.83,-35.1 -19.8,-78.1 -4.37,-114.7 7.64,-18.3 19.22,-34.9 33.86,-48.4 6.22,-6.2 14.5,-12.4 22.73,-18.2 l 12.6,-7.6 c 4.31,-2.3 8.82,-4.3 13.23,-6.4 35.97,-15.6 77.33,-18.5 115.29,-7.8 18.93,5.5 36.91,14.3 52.92,25.8 8.24,5.6 15.29,12.3 22.62,19.2 6.2,6.2 13.27,14.5 18.97,22 23.39,31.2 37.87,69.1 41.32,108.1 3.6,38.9 -3.79,79 -21.4,114.1 -8.71,17.6 -20,34 -33.2,48.6 l -5.04,5.3 c -2.24,2.4 -3.46,3.4 -5.24,5.2 -3.18,3.2 -6.59,6.4 -10.52,9.7 -7.54,6.7 -15.08,12.4 -23.12,18 -63.82,44.9 -148.13,58.6 -223.44,36.9 -37.65,-10.6 -72.91,-29.9 -102.43,-55.7 -28.82,-25.6 -53.43,-57 -71.59,-91.1 -36.44,-68.6 -47.78,-150.4 -30.6,-226.6 8.43,-38 23.55,-74.7 44.75,-107.6 10.62,-16.5 22.7,-31.9 35.99,-46.3 l 5.01,-5.3 c 1.01,-1.1 1.29,-1.5 2.9,-3 l 2.47,-2.4 9.88,-9.6 c 7.05,-6.3 14.75,-13.3 22.28,-19.2 60.13,-48.7 134.71,-79.6 211.92,-88 77.18,-8.7 156.91,4.8 227.05,39.1 35.18,16.9 67.68,39.3 96.68,65.4 l 10.68,10 3.1,3 2.39,2.5 4.76,4.9 9.53,9.9 9.77,11.1 c 13.21,14.9 24.57,30 35.69,46 44.06,63.6 72.69,137.7 84.41,214.3 11.21,76.6 5.72,156 -17.7,230.3 -22.89,74.4 -63.34,143.4 -116.89,200.1 -3.58,3.7 -6.1,6.7 -10.57,11 l -9.88,9.6 c -6.46,6.3 -13.08,12.7 -20.84,19.2 -14.86,13.4 -29.9,25.1 -45.38,36.7 -31.04,22.9 -64.32,42.9 -99.15,59.6 -139.15,67.6 -303.35,82.7 -452.88,40.1 -74.76,-21 -145.73,-55.7 -208.34,-101.8 -31.28,-22.9 -60.7,-49.4 -86.81,-77.2 -12.56,-12.4 -25.7,-28.3 -38.54,-42.9 -11.82,-15.3 -24.24,-30 -35.01,-46 -89.69,-125.3 -141.32,-277.4 -147.1,-431.7 -6.32,-154.3 33.05,-310.5 112.91,-443.5 19.61,-33.5 42.56,-64.8 66.68,-95.1 12.53,-14.8 24.87,-29.7 38.43,-43.6 13.13,-14.3 26.68,-27.7 40.73,-40.8 7.98,-7.5 16.35,-14.6 24.57,-21.8 -6.8,-2.2 -13.63,-4.4 -20.41,-6.8 -25.3,-8.8 -50.35,-18.3 -75.15,-28.6 -49.56,-20.4 -98.17,-43.4 -145.46,-69 -94.28,-51.6 -183.55,-113.6 -263.12,-187.4 -79.57,-73.6 -148.93,-159.7 -201.34,-256.1 -41.74,-76.4 -71.77,-159.2 -90.28,-244.6 -177.06,198.2 -309.67,433.9 -386.16,686 -82.35,272.8 -100.51,563.9 -51.19,842.8 24.76,139.3 64.86,275.8 120.9,405.4 55.64,129.7 127.37,252.2 211.92,364.8 42.21,56.1 88.75,110.4 136.12,160.5 11.57,12.6 25.32,26 37.88,38.9 11.49,11.1 24.55,24.2 37.25,35.7 25.43,23.8 52.1,46.2 79.21,68.1 108.89,86.7 230.43,157.2 359.52,208.9 258.34,102.7 547.17,129.3 820.13,71.9 136.43,-28.4 268.51,-77.3 391.08,-143.9 122.35,-66.7 235.49,-152.1 332.7,-252.1 96.7,-98.9 175.35,-215.8 228.89,-343.7 53.94,-127.8 83.93,-265.7 88.08,-404.8 4.25,-139 -17.26,-278.9 -63.64,-410.3 z m 91.07,863 c -57.82,142.9 -143.34,274.7 -249.4,386.8 -209.85,222.8 -488.35,381.2 -788.86,445.3 -299.79,65.4 -619.71,40.9 -905.04,-74.8 -142.83,-56.9 -276.72,-136.1 -395.72,-233.2 -29.67,-24.3 -58.79,-49.3 -86.54,-75.8 -14.33,-13.3 -27.04,-26.2 -41.67,-40.7 -12.82,-13.5 -25.19,-25.7 -38.37,-40.1 -52.79,-56.6 -100.26,-114.9 -145.25,-176.4 -178.57,-245.9 -297.85,-534.3 -342.22,-833.7 -44.97,-299.1 -18.7,-608.3 78.64,-893 48.61,-142.2 113.18,-278.9 194.15,-405 80.43,-126.3 176.58,-242.1 283.7,-345.6 l 49.43,-47.7 7.09,67.2 c 10.77,102.1 38.7,202.6 84.74,295.1 45.78,92.5 108.43,177.1 182.3,250.9 73.85,74 158.36,137.7 248.73,191.9 45.09,27.3 91.75,52.2 139.58,74.6 23.92,11.3 48.15,21.9 72.67,31.8 9.4,3.8 18.92,7.4 28.43,11 1.39,-1.2 2.69,-2.5 4.1,-3.7 l 11.1,-9.1 11.71,-9.1 21.71,-16.8 c 15.45,-11.1 31.92,-22.9 47.98,-33.4 16.27,-10.2 32.25,-20.9 49.13,-30.1 66.56,-38.4 137.61,-69.1 211.42,-90.8 73.65,-22.2 149.97,-35.3 226.81,-39.8 153.71,-9.4 309.53,17.9 451.69,78.3 70.98,30.4 138.37,69.2 200.74,114.8 30.81,23.3 60.92,47.7 88.95,74.3 l 21.06,19.9 20.03,20.7 c 12.68,13.2 25.32,26 38.23,41.3 205.66,230 316.6,537.4 310.75,845 -2.56,153.7 -33.69,307.1 -91.8,449.9 z"
         id="path907" /></clipPath><linearGradient
       x1="0"
       y1="0"
       x2="1"
       y2="0"
       gradientUnits="userSpaceOnUse"
       gradientTransform="matrix(3106.39,0,0,-3106.39,4526.81,12440)"
       spreadMethod="pad"
       id="linearGradient915"><stop
         style="stop-opacity:1;stop-color:#463420"
         offset="0"
         id="stop911" /><stop
         style="stop-opacity:1;stop-color:#411321"
         offset="1"
         id="stop913" /></linearGradient><clipPath
       clipPathUnits="userSpaceOnUse"
       id="clipPath925"><path
         d="m 7262.55,12958.9 c -3.96,15.2 -7.23,30.8 -13.07,45.8 -10.88,30.1 -20.18,61.8 -35.15,91.7 -6.98,15.2 -14.02,30.5 -21.12,45.9 -8.56,14.7 -17.18,29.5 -25.88,44.5 -16.3,30.6 -38.37,58.1 -58.8,87.4 l -7.86,10.9 -8.78,10.1 -17.68,20.5 -17.86,20.6 -9,10.3 -2.25,2.6 -1.13,1.3 -2.15,2.2 -4.57,4.5 c -12.19,12.3 -24.46,24.6 -36.8,36.9 -13.9,12.6 -27.88,25.2 -41.94,38 -56.22,48.9 -118.45,92.7 -185.53,131.3 -134.04,77.2 -288.7,130.4 -450.64,150.4 -20.2,3 -40.56,4.7 -60.98,6.1 -20.4,2 -40.9,2.6 -61.44,3.1 l -15.41,0.5 -9.36,0.2 -7.28,-0.1 -29.15,-0.5 c -18.69,0.1 -40.83,-1.8 -61.82,-3.2 -83.4,-6.5 -164.76,-21.1 -244.86,-43.8 -159.57,-46 -309.77,-125.1 -435.31,-229.5 -15.4,-13.4 -30.77,-26.7 -46.1,-40 -14.9,-13.8 -29.28,-28.1 -43.84,-42.1 l -2.71,-2.6 -1.35,-1.3 -3.21,-3.4 -4.78,-5.3 -9.55,-10.6 -19.06,-21.2 c -12.68,-14.2 -25.33,-28.3 -37.95,-42.3 -12.76,-13.2 -24.81,-30.3 -37.01,-45.9 -12.12,-15.8 -24.21,-31.6 -36.25,-47.4 l -17.95,-23.6 c -5.52,-8 -10.49,-16.3 -15.73,-24.4 -10.34,-16.2 -20.64,-32.4 -30.89,-48.6 -80.6,-129.9 -137.41,-267.4 -174.79,-401.4 -39.11,-133.8 -52.07,-265.8 -54.15,-386 -0.08,-15.1 -0.16,-30 -0.24,-44.7 -0.01,-14.7 -0.53,-29.3 0.94,-43.7 2.05,-28.7 3.85,-56.8 6.19,-84 0.56,-6.8 1.11,-13.6 1.65,-20.3 1.04,-6.7 2.06,-13.3 3.08,-19.9 2.07,-13.2 4.11,-26.1 6.13,-38.9 2.01,-12.8 4,-25.4 5.96,-37.8 1.96,-12.3 3.62,-24.6 6.8,-36.3 5.6,-23.7 11.02,-46.5 16.25,-68.6 2.62,-11 5.19,-21.8 7.72,-32.4 3.01,-10.5 6.66,-20.6 9.86,-30.6 6.57,-19.8 12.88,-38.9 18.9,-57.1 3.01,-9.1 5.95,-17.9 8.81,-26.6 3.14,-8.5 6.86,-16.7 10.12,-24.7 13.33,-32 25.31,-60.4 36,-84.9 11.94,-24 22.96,-44 31.43,-60.4 17.34,-32.4 26.59,-49.7 26.59,-49.7 0,0 -6.64,18.5 -19.11,53.1 -6.19,17.2 -14.38,38.3 -22.91,63.3 -7.08,25.6 -15.51,54.9 -25.05,87.5 -17.51,65.6 -33.24,146.5 -44.71,239.6 -8.29,93.4 -14.1,199 -2.64,313.1 1.13,14.2 2.26,28.6 3.41,43.1 1.96,14.5 4.48,29 6.7,43.7 2.3,14.6 4.61,29.4 6.95,44.3 2.27,14.9 4.4,30 8.42,44.9 7.23,29.8 13.79,60.3 20.75,91.1 9.21,30.2 18.55,60.9 28.03,92 41.57,123.1 101.48,246.8 179.33,364 9.98,14.5 20,29 30.06,43.6 5.05,7.2 9.97,14.7 15.15,21.8 l 16.44,20.3 c 10.94,13.6 21.91,27.2 32.91,40.9 11.24,13.7 21.01,27.5 34.89,41.2 12.99,13.7 26.01,27.4 39.08,41.2 l 19.62,20.7 9.83,10.4 4.74,5 c -0.64,-0.7 -1.98,-2.2 -0.48,-0.6 l 1.24,1.1 2.48,2.3 c 13.23,12.2 26.2,24.7 39.65,36.8 13.82,11.6 27.67,23.2 41.55,34.9 113.35,90.4 246.02,159.8 387.55,199.9 70.35,20.4 143.78,33.9 215.79,39.9 17.9,1.2 34.56,3.1 54.8,3.2 l 29.14,1 6.72,0.2 c 0.34,0 0.69,0 0.63,0 l 1.71,-0.1 h 3.42 l 13.69,-0.2 c 18.25,-0.2 36.48,-0.4 54.62,-1.9 18.17,-1 36.3,-2.2 54.29,-4.5 72.08,-8 142.92,-22.5 211.02,-43.3 68.09,-20.9 133.31,-48.2 194.79,-80.4 61.45,-32.1 118.75,-70.3 171.66,-111 12.74,-10.3 25.41,-20.5 38,-30.7 12.97,-11.7 25.87,-23.3 38.7,-34.9 l 4.8,-4.3 c -0.02,0 0.29,-0.2 0.55,-0.5 l 0.66,-0.7 2.1,-2.2 8.35,-8.7 16.68,-17.3 16.63,-17.2 8.3,-8.6 7.4,-9.2 c 81.08,-97 137.36,-206 168.83,-313.5 6.74,-27.1 13.3,-53.8 18.74,-80.2 1.22,-8.5 2.42,-16.8 3.62,-25.1 -16.9,84.4 -49.05,172.8 -99.35,257 -14.03,24 -29.83,47.3 -46.96,70.2 -16.72,22.7 -37.48,47.3 -54.87,66.3 -40.12,43.8 -83.93,82.9 -132.61,119.5 -97.07,72.5 -212.36,128.9 -336.65,159.8 -62.46,15.5 -125.18,25.5 -192.28,28.3 l -22.59,0.6 -11.3,0.3 -7.34,0.2 -6.09,-0.2 c -16.22,-0.4 -32.49,-0.3 -48.72,-1.3 -32.46,-1.8 -64.89,-4.9 -97.08,-9.9 -128.67,-20 -253.41,-65.9 -362.03,-133.9 -54.75,-33.8 -104.24,-72 -151.54,-116.5 -10.4,-10.2 -20.77,-20.4 -31.1,-30.6 -10.81,-11.7 -21.59,-23.3 -32.33,-34.9 -10.59,-11 -19.71,-23.2 -29.5,-34.7 l -14.36,-17.5 -13.5,-18.1 c -36.19,-47.9 -68.14,-97.7 -94.41,-149 -26.49,-51.1 -49.49,-102.6 -66.36,-154.6 -17.24,-51.8 -31.06,-103.1 -39.52,-153.6 -5.04,-25 -7.56,-50.1 -10.84,-74.4 -2.14,-24.6 -4.65,-48.3 -5.21,-72.3 -0.66,-24 -1.38,-47.6 -0.35,-68.9 0.35,-11.2 0.68,-22.2 1.02,-33.2 0.8,-10.9 1.6,-21.7 2.39,-32.3 3.81,-42.6 9.96,-82.6 17.52,-119.6 14.62,-74.4 36.39,-136.6 56.86,-186.3 20.2,-49.8 40.84,-86.6 54.96,-111.4 6.86,-12.6 13.01,-21.6 16.8,-27.9 3.9,-6.2 5.91,-9.4 5.91,-9.4 0,0 -5.65,14.1 -15.35,40.8 -9.9,26.4 -22.68,66.1 -35.53,116.8 -12.79,50.7 -23.95,113.2 -29.9,185 -6.02,71.7 -3.9,152.8 7.65,239.8 2.78,21.2 7.02,43.4 10.95,65.6 5.07,22.1 9.31,44.7 16.01,67.1 11.81,45.3 27.47,91 46.69,136.5 18.89,45.6 41.93,90.8 68.62,134.9 12.99,22.3 28.01,43.6 42.54,65.5 15.71,21 31.15,42.6 48.58,62.8 l 12.74,15.5 13.55,14.9 c 9.23,9.8 17.75,20.3 27.5,29.7 9.13,9.3 18.29,18.6 27.48,27.9 10.68,9.8 21.4,19.6 32.14,29.5 39.13,33.9 84.51,67 131.56,94.9 94.8,55.7 201.55,94.5 312.02,111 27.59,4.3 55.36,7.3 83.21,9 13.91,1 27.87,0.9 41.8,1.5 l 4.97,0.1 h 1.39 l 2.83,-0.1 11.31,-0.2 22.59,-0.5 c 53.27,-2.2 109.95,-9 163.24,-21.4 53.65,-12.4 105.78,-29.7 155.43,-51.1 49.62,-21.6 96.47,-47.9 140.33,-77.3 43.68,-29.2 84.44,-63.3 120.63,-97.6 9.53,-9.5 20.07,-19.4 27.56,-28 8.14,-8.9 16.44,-17.3 24.3,-27.2 7.93,-9.5 16.08,-18.8 23.25,-28.8 7.34,-9.8 15.06,-19.3 21.71,-29.4 55.65,-79.5 93.28,-165.5 114.64,-248.9 10.88,-41.7 17.42,-82.7 21.69,-122.2 0.87,-9.9 1.73,-19.6 2.58,-29.3 0.65,-8.7 0.94,-19.6 1.41,-29.1 0.12,-9.3 0.24,-18.4 0.36,-27.5 -0.22,-9.1 -0.43,-18.2 -0.64,-27.1 -3.2,-71.3 -14.74,-133.5 -28.37,-183.7 -14.24,-50.1 -29.04,-89 -40.51,-114.8 -5.62,-13 -10.21,-22.9 -13.39,-29.5 -3.13,-6.7 -4.75,-10.1 -4.75,-10.1 0,0 2.25,3.1 6.6,9 0.24,0.3 0.55,0.7 0.79,1.1 -5.03,-8.5 -7.66,-12.9 -7.66,-12.9 0,0 12.34,15.2 35.5,43.8 5.52,7.3 12.63,14.8 18.72,24.4 6.28,9.5 13.12,19.9 20.52,31.2 7.15,11.4 16.07,23.2 23.36,36.8 7.17,13.7 14.79,28.3 22.84,43.7 30.1,62.5 63.53,142.2 78.67,239.8 16.3,96.8 19.69,210.7 -5.95,331.2 -3.74,14.9 -7.53,30 -11.35,45.2 z"
         id="path923" /></clipPath><linearGradient
       x1="0"
       y1="0"
       x2="1"
       y2="0"
       gradientUnits="userSpaceOnUse"
       gradientTransform="matrix(2431.54,0,0,-2431.54,4861.08,12631.8)"
       spreadMethod="pad"
       id="linearGradient931"><stop
         style="stop-opacity:1;stop-color:#463420"
         offset="0"
         id="stop927" /><stop
         style="stop-opacity:1;stop-color:#411321"
         offset="1"
         id="stop929" /></linearGradient><clipPath
       id="clipPath909-7"
       clipPathUnits="userSpaceOnUse"><path
         id="path907-2"
         d="m 7450.1,12310.1 c -23.2,-65.7 -52.4,-129.4 -87.47,-189.7 l -27.4,-44.6 c -9.43,-14.6 -19.67,-28.8 -29.45,-43.2 -20.45,-28.3 -41.93,-56.2 -64.15,-81.6 -10.37,-12.9 -23.33,-26.4 -35.87,-39.7 l -17.85,-19 -18.66,-18 c -24.78,-24.1 -51.48,-46.1 -78.77,-67.3 -55.31,-41.4 -115.16,-76.8 -178.43,-104.8 -126.71,-55.5 -266.56,-81.8 -405.29,-74.9 -69.35,3.2 -138.39,14.3 -205.15,33.6 -66.91,18.8 -131.46,45.9 -192.11,80 -15.4,8.1 -29.94,17.6 -44.81,26.7 -14.67,9.3 -28.04,18.7 -42.45,28.8 l -21.91,16.5 -10.1,7.6 -10.17,8.2 c -13.5,11 -26.68,22.4 -39.53,34.2 -12.8,11.7 -25.42,23.9 -37.19,36.5 -12.23,12.1 -23.3,25.3 -34.63,38.3 -21.69,26.7 -42.48,54.3 -60.22,83.9 -72.32,117.3 -109.22,256.3 -105.14,394.7 3.61,138.4 48.31,275.6 127.82,389.4 9.49,14.6 20.66,27.9 31.06,41.8 11.22,12.9 21.02,25.6 34.3,39.1 23.72,25.8 48.72,48.8 76.3,69.4 54.76,41.4 117.02,72.8 183.02,92.1 132.01,39.1 278.37,27.9 403.67,-30.4 31.35,-14.5 61.41,-31.9 89.55,-52.1 13.98,-10.1 27.97,-20.7 40.51,-31.6 6.36,-5.1 13.03,-11.3 19.74,-17.7 l 10.02,-9.4 c 2.11,-2 5.7,-5.9 8.48,-8.7 47.75,-49 84.17,-109 105.35,-174.2 21.68,-65.2 27.62,-135.4 18.73,-203.7 -9.41,-68.2 -33.8,-134.6 -72.32,-192 -9.56,-14.2 -20.05,-28.5 -30.93,-41.2 l -8.16,-9.6 -9.38,-10 -4.7,-5.1 -2.34,-2.5 -1.84,-1.7 -9.22,-8.9 c -25.03,-23.2 -53.11,-43.3 -83.71,-58.5 -60.96,-31 -131.04,-44.1 -199.48,-37.5 -68.47,6.4 -135.06,32.8 -189.36,75.4 -6.98,5.3 -12.88,10.6 -19.57,16.3 l -10.01,9.4 -2.51,2.4 -1.88,1.9 -4.43,4.6 c -11.77,12.3 -22.49,25.6 -31.97,39.8 -18.9,28.3 -32.58,60.2 -40.5,93.4 -16.11,66.6 -7.27,138.9 24.03,200.1 15.93,30.7 36.58,58.2 62.12,81.6 25.23,22.8 55.49,39.9 88.14,49.7 65.31,19.9 139.55,9.2 196.42,-29.5 7.04,-4.8 14.18,-10.1 20.39,-15.4 3.13,-2.5 6.44,-5.5 9.81,-8.8 1.49,-1.4 3.74,-3.4 4.61,-4.4 l 4.42,-4.5 c 11.55,-12.4 21.48,-26.3 29.21,-41.4 15.65,-30.1 22.64,-64.7 20.02,-98.6 -2.5,-34 -14.6,-67.3 -34.68,-95 -5.38,-7.1 -9.92,-12.9 -16.61,-19.8 -5.89,-5.6 -12,-11.8 -18.92,-16.5 -13.51,-10.1 -28.75,-17.8 -44.92,-22.8 -32.43,-9.7 -68.22,-7.8 -99.6,5.3 -3.84,1.8 -7.79,3.4 -11.56,5.3 l -11.04,6.4 c -6.74,4.7 -13.34,9.2 -20.25,15.8 -12.37,11.1 -22.5,25.1 -29.17,40.4 -13.58,30.8 -12.5,67.7 2.33,98 3.69,7.7 8.36,14.7 13.16,21.2 l 9.01,10.2 c 2.52,2 5.76,5.7 9.07,7.9 13.1,10.3 29.06,16.8 45.69,18.8 33.39,4 68.36,-10.7 87.14,-39 9.06,-13.8 12.83,-30.9 11.22,-47.4 -0.75,-8.3 -3.13,-16.4 -6.69,-23.9 -3.83,-7.8 -7.74,-13.7 -14.43,-20.7 l 10.58,-9.6 c 13.37,13.3 23.55,32.9 25.54,52.5 2.27,19.8 -1.98,40.6 -12.75,57.6 -2.72,4.2 -5.55,8.4 -9,12.1 l -2.51,2.8 c -0.78,0.9 -2.25,2.2 -2.82,2.7 l -5.06,4.7 c -7.78,6.3 -16.2,12.1 -25.2,16 -17.91,8.6 -38.27,11.6 -57.99,9.7 -19.77,-2.1 -39,-9.6 -54.9,-21.7 -4.31,-2.9 -7.26,-6.1 -11.71,-10 l -9.28,-10.2 c -6.4,-8.1 -11.93,-16.3 -16.32,-25.1 -17.83,-35.1 -19.8,-78.1 -4.37,-114.7 7.64,-18.3 19.22,-34.9 33.86,-48.4 6.22,-6.2 14.5,-12.4 22.73,-18.2 l 12.6,-7.6 c 4.31,-2.3 8.82,-4.3 13.23,-6.4 35.97,-15.6 77.33,-18.5 115.29,-7.8 18.93,5.5 36.91,14.3 52.92,25.8 8.24,5.6 15.29,12.3 22.62,19.2 6.2,6.2 13.27,14.5 18.97,22 23.39,31.2 37.87,69.1 41.32,108.1 3.6,38.9 -3.79,79 -21.4,114.1 -8.71,17.6 -20,34 -33.2,48.6 l -5.04,5.3 c -2.24,2.4 -3.46,3.4 -5.24,5.2 -3.18,3.2 -6.59,6.4 -10.52,9.7 -7.54,6.7 -15.08,12.4 -23.12,18 -63.82,44.9 -148.13,58.6 -223.44,36.9 -37.65,-10.6 -72.91,-29.9 -102.43,-55.7 -28.82,-25.6 -53.43,-57 -71.59,-91.1 -36.44,-68.6 -47.78,-150.4 -30.6,-226.6 8.43,-38 23.55,-74.7 44.75,-107.6 10.62,-16.5 22.7,-31.9 35.99,-46.3 l 5.01,-5.3 c 1.01,-1.1 1.29,-1.5 2.9,-3 l 2.47,-2.4 9.88,-9.6 c 7.05,-6.3 14.75,-13.3 22.28,-19.2 60.13,-48.7 134.71,-79.6 211.92,-88 77.18,-8.7 156.91,4.8 227.05,39.1 35.18,16.9 67.68,39.3 96.68,65.4 l 10.68,10 3.1,3 2.39,2.5 4.76,4.9 9.53,9.9 9.77,11.1 c 13.21,14.9 24.57,30 35.69,46 44.06,63.6 72.69,137.7 84.41,214.3 11.21,76.6 5.72,156 -17.7,230.3 -22.89,74.4 -63.34,143.4 -116.89,200.1 -3.58,3.7 -6.1,6.7 -10.57,11 l -9.88,9.6 c -6.46,6.3 -13.08,12.7 -20.84,19.2 -14.86,13.4 -29.9,25.1 -45.38,36.7 -31.04,22.9 -64.32,42.9 -99.15,59.6 -139.15,67.6 -303.35,82.7 -452.88,40.1 -74.76,-21 -145.73,-55.7 -208.34,-101.8 -31.28,-22.9 -60.7,-49.4 -86.81,-77.2 -12.56,-12.4 -25.7,-28.3 -38.54,-42.9 -11.82,-15.3 -24.24,-30 -35.01,-46 -89.69,-125.3 -141.32,-277.4 -147.1,-431.7 -6.32,-154.3 33.05,-310.5 112.91,-443.5 19.61,-33.5 42.56,-64.8 66.68,-95.1 12.53,-14.8 24.87,-29.7 38.43,-43.6 13.13,-14.3 26.68,-27.7 40.73,-40.8 7.98,-7.5 16.35,-14.6 24.57,-21.8 -6.8,-2.2 -13.63,-4.4 -20.41,-6.8 -25.3,-8.8 -50.35,-18.3 -75.15,-28.6 -49.56,-20.4 -98.17,-43.4 -145.46,-69 -94.28,-51.6 -183.55,-113.6 -263.12,-187.4 -79.57,-73.6 -148.93,-159.7 -201.34,-256.1 -41.74,-76.4 -71.77,-159.2 -90.28,-244.6 -177.06,198.2 -309.67,433.9 -386.16,686 -82.35,272.8 -100.51,563.9 -51.19,842.8 24.76,139.3 64.86,275.8 120.9,405.4 55.64,129.7 127.37,252.2 211.92,364.8 42.21,56.1 88.75,110.4 136.12,160.5 11.57,12.6 25.32,26 37.88,38.9 11.49,11.1 24.55,24.2 37.25,35.7 25.43,23.8 52.1,46.2 79.21,68.1 108.89,86.7 230.43,157.2 359.52,208.9 258.34,102.7 547.17,129.3 820.13,71.9 136.43,-28.4 268.51,-77.3 391.08,-143.9 122.35,-66.7 235.49,-152.1 332.7,-252.1 96.7,-98.9 175.35,-215.8 228.89,-343.7 53.94,-127.8 83.93,-265.7 88.08,-404.8 4.25,-139 -17.26,-278.9 -63.64,-410.3 z m 91.07,863 c -57.82,142.9 -143.34,274.7 -249.4,386.8 -209.85,222.8 -488.35,381.2 -788.86,445.3 -299.79,65.4 -619.71,40.9 -905.04,-74.8 -142.83,-56.9 -276.72,-136.1 -395.72,-233.2 -29.67,-24.3 -58.79,-49.3 -86.54,-75.8 -14.33,-13.3 -27.04,-26.2 -41.67,-40.7 -12.82,-13.5 -25.19,-25.7 -38.37,-40.1 -52.79,-56.6 -100.26,-114.9 -145.25,-176.4 -178.57,-245.9 -297.85,-534.3 -342.22,-833.7 -44.97,-299.1 -18.7,-608.3 78.64,-893 48.61,-142.2 113.18,-278.9 194.15,-405 80.43,-126.3 176.58,-242.1 283.7,-345.6 l 49.43,-47.7 7.09,67.2 c 10.77,102.1 38.7,202.6 84.74,295.1 45.78,92.5 108.43,177.1 182.3,250.9 73.85,74 158.36,137.7 248.73,191.9 45.09,27.3 91.75,52.2 139.58,74.6 23.92,11.3 48.15,21.9 72.67,31.8 9.4,3.8 18.92,7.4 28.43,11 1.39,-1.2 2.69,-2.5 4.1,-3.7 l 11.1,-9.1 11.71,-9.1 21.71,-16.8 c 15.45,-11.1 31.92,-22.9 47.98,-33.4 16.27,-10.2 32.25,-20.9 49.13,-30.1 66.56,-38.4 137.61,-69.1 211.42,-90.8 73.65,-22.2 149.97,-35.3 226.81,-39.8 153.71,-9.4 309.53,17.9 451.69,78.3 70.98,30.4 138.37,69.2 200.74,114.8 30.81,23.3 60.92,47.7 88.95,74.3 l 21.06,19.9 20.03,20.7 c 12.68,13.2 25.32,26 38.23,41.3 205.66,230 316.6,537.4 310.75,845 -2.56,153.7 -33.69,307.1 -91.8,449.9 z" /></clipPath><clipPath
       id="clipPath925-9"
       clipPathUnits="userSpaceOnUse"><path
         id="path923-9"
         d="m 7262.55,12958.9 c -3.96,15.2 -7.23,30.8 -13.07,45.8 -10.88,30.1 -20.18,61.8 -35.15,91.7 -6.98,15.2 -14.02,30.5 -21.12,45.9 -8.56,14.7 -17.18,29.5 -25.88,44.5 -16.3,30.6 -38.37,58.1 -58.8,87.4 l -7.86,10.9 -8.78,10.1 -17.68,20.5 -17.86,20.6 -9,10.3 -2.25,2.6 -1.13,1.3 -2.15,2.2 -4.57,4.5 c -12.19,12.3 -24.46,24.6 -36.8,36.9 -13.9,12.6 -27.88,25.2 -41.94,38 -56.22,48.9 -118.45,92.7 -185.53,131.3 -134.04,77.2 -288.7,130.4 -450.64,150.4 -20.2,3 -40.56,4.7 -60.98,6.1 -20.4,2 -40.9,2.6 -61.44,3.1 l -15.41,0.5 -9.36,0.2 -7.28,-0.1 -29.15,-0.5 c -18.69,0.1 -40.83,-1.8 -61.82,-3.2 -83.4,-6.5 -164.76,-21.1 -244.86,-43.8 -159.57,-46 -309.77,-125.1 -435.31,-229.5 -15.4,-13.4 -30.77,-26.7 -46.1,-40 -14.9,-13.8 -29.28,-28.1 -43.84,-42.1 l -2.71,-2.6 -1.35,-1.3 -3.21,-3.4 -4.78,-5.3 -9.55,-10.6 -19.06,-21.2 c -12.68,-14.2 -25.33,-28.3 -37.95,-42.3 -12.76,-13.2 -24.81,-30.3 -37.01,-45.9 -12.12,-15.8 -24.21,-31.6 -36.25,-47.4 l -17.95,-23.6 c -5.52,-8 -10.49,-16.3 -15.73,-24.4 -10.34,-16.2 -20.64,-32.4 -30.89,-48.6 -80.6,-129.9 -137.41,-267.4 -174.79,-401.4 -39.11,-133.8 -52.07,-265.8 -54.15,-386 -0.08,-15.1 -0.16,-30 -0.24,-44.7 -0.01,-14.7 -0.53,-29.3 0.94,-43.7 2.05,-28.7 3.85,-56.8 6.19,-84 0.56,-6.8 1.11,-13.6 1.65,-20.3 1.04,-6.7 2.06,-13.3 3.08,-19.9 2.07,-13.2 4.11,-26.1 6.13,-38.9 2.01,-12.8 4,-25.4 5.96,-37.8 1.96,-12.3 3.62,-24.6 6.8,-36.3 5.6,-23.7 11.02,-46.5 16.25,-68.6 2.62,-11 5.19,-21.8 7.72,-32.4 3.01,-10.5 6.66,-20.6 9.86,-30.6 6.57,-19.8 12.88,-38.9 18.9,-57.1 3.01,-9.1 5.95,-17.9 8.81,-26.6 3.14,-8.5 6.86,-16.7 10.12,-24.7 13.33,-32 25.31,-60.4 36,-84.9 11.94,-24 22.96,-44 31.43,-60.4 17.34,-32.4 26.59,-49.7 26.59,-49.7 0,0 -6.64,18.5 -19.11,53.1 -6.19,17.2 -14.38,38.3 -22.91,63.3 -7.08,25.6 -15.51,54.9 -25.05,87.5 -17.51,65.6 -33.24,146.5 -44.71,239.6 -8.29,93.4 -14.1,199 -2.64,313.1 1.13,14.2 2.26,28.6 3.41,43.1 1.96,14.5 4.48,29 6.7,43.7 2.3,14.6 4.61,29.4 6.95,44.3 2.27,14.9 4.4,30 8.42,44.9 7.23,29.8 13.79,60.3 20.75,91.1 9.21,30.2 18.55,60.9 28.03,92 41.57,123.1 101.48,246.8 179.33,364 9.98,14.5 20,29 30.06,43.6 5.05,7.2 9.97,14.7 15.15,21.8 l 16.44,20.3 c 10.94,13.6 21.91,27.2 32.91,40.9 11.24,13.7 21.01,27.5 34.89,41.2 12.99,13.7 26.01,27.4 39.08,41.2 l 19.62,20.7 9.83,10.4 4.74,5 c -0.64,-0.7 -1.98,-2.2 -0.48,-0.6 l 1.24,1.1 2.48,2.3 c 13.23,12.2 26.2,24.7 39.65,36.8 13.82,11.6 27.67,23.2 41.55,34.9 113.35,90.4 246.02,159.8 387.55,199.9 70.35,20.4 143.78,33.9 215.79,39.9 17.9,1.2 34.56,3.1 54.8,3.2 l 29.14,1 6.72,0.2 c 0.34,0 0.69,0 0.63,0 l 1.71,-0.1 h 3.42 l 13.69,-0.2 c 18.25,-0.2 36.48,-0.4 54.62,-1.9 18.17,-1 36.3,-2.2 54.29,-4.5 72.08,-8 142.92,-22.5 211.02,-43.3 68.09,-20.9 133.31,-48.2 194.79,-80.4 61.45,-32.1 118.75,-70.3 171.66,-111 12.74,-10.3 25.41,-20.5 38,-30.7 12.97,-11.7 25.87,-23.3 38.7,-34.9 l 4.8,-4.3 c -0.02,0 0.29,-0.2 0.55,-0.5 l 0.66,-0.7 2.1,-2.2 8.35,-8.7 16.68,-17.3 16.63,-17.2 8.3,-8.6 7.4,-9.2 c 81.08,-97 137.36,-206 168.83,-313.5 6.74,-27.1 13.3,-53.8 18.74,-80.2 1.22,-8.5 2.42,-16.8 3.62,-25.1 -16.9,84.4 -49.05,172.8 -99.35,257 -14.03,24 -29.83,47.3 -46.96,70.2 -16.72,22.7 -37.48,47.3 -54.87,66.3 -40.12,43.8 -83.93,82.9 -132.61,119.5 -97.07,72.5 -212.36,128.9 -336.65,159.8 -62.46,15.5 -125.18,25.5 -192.28,28.3 l -22.59,0.6 -11.3,0.3 -7.34,0.2 -6.09,-0.2 c -16.22,-0.4 -32.49,-0.3 -48.72,-1.3 -32.46,-1.8 -64.89,-4.9 -97.08,-9.9 -128.67,-20 -253.41,-65.9 -362.03,-133.9 -54.75,-33.8 -104.24,-72 -151.54,-116.5 -10.4,-10.2 -20.77,-20.4 -31.1,-30.6 -10.81,-11.7 -21.59,-23.3 -32.33,-34.9 -10.59,-11 -19.71,-23.2 -29.5,-34.7 l -14.36,-17.5 -13.5,-18.1 c -36.19,-47.9 -68.14,-97.7 -94.41,-149 -26.49,-51.1 -49.49,-102.6 -66.36,-154.6 -17.24,-51.8 -31.06,-103.1 -39.52,-153.6 -5.04,-25 -7.56,-50.1 -10.84,-74.4 -2.14,-24.6 -4.65,-48.3 -5.21,-72.3 -0.66,-24 -1.38,-47.6 -0.35,-68.9 0.35,-11.2 0.68,-22.2 1.02,-33.2 0.8,-10.9 1.6,-21.7 2.39,-32.3 3.81,-42.6 9.96,-82.6 17.52,-119.6 14.62,-74.4 36.39,-136.6 56.86,-186.3 20.2,-49.8 40.84,-86.6 54.96,-111.4 6.86,-12.6 13.01,-21.6 16.8,-27.9 3.9,-6.2 5.91,-9.4 5.91,-9.4 0,0 -5.65,14.1 -15.35,40.8 -9.9,26.4 -22.68,66.1 -35.53,116.8 -12.79,50.7 -23.95,113.2 -29.9,185 -6.02,71.7 -3.9,152.8 7.65,239.8 2.78,21.2 7.02,43.4 10.95,65.6 5.07,22.1 9.31,44.7 16.01,67.1 11.81,45.3 27.47,91 46.69,136.5 18.89,45.6 41.93,90.8 68.62,134.9 12.99,22.3 28.01,43.6 42.54,65.5 15.71,21 31.15,42.6 48.58,62.8 l 12.74,15.5 13.55,14.9 c 9.23,9.8 17.75,20.3 27.5,29.7 9.13,9.3 18.29,18.6 27.48,27.9 10.68,9.8 21.4,19.6 32.14,29.5 39.13,33.9 84.51,67 131.56,94.9 94.8,55.7 201.55,94.5 312.02,111 27.59,4.3 55.36,7.3 83.21,9 13.91,1 27.87,0.9 41.8,1.5 l 4.97,0.1 h 1.39 l 2.83,-0.1 11.31,-0.2 22.59,-0.5 c 53.27,-2.2 109.95,-9 163.24,-21.4 53.65,-12.4 105.78,-29.7 155.43,-51.1 49.62,-21.6 96.47,-47.9 140.33,-77.3 43.68,-29.2 84.44,-63.3 120.63,-97.6 9.53,-9.5 20.07,-19.4 27.56,-28 8.14,-8.9 16.44,-17.3 24.3,-27.2 7.93,-9.5 16.08,-18.8 23.25,-28.8 7.34,-9.8 15.06,-19.3 21.71,-29.4 55.65,-79.5 93.28,-165.5 114.64,-248.9 10.88,-41.7 17.42,-82.7 21.69,-122.2 0.87,-9.9 1.73,-19.6 2.58,-29.3 0.65,-8.7 0.94,-19.6 1.41,-29.1 0.12,-9.3 0.24,-18.4 0.36,-27.5 -0.22,-9.1 -0.43,-18.2 -0.64,-27.1 -3.2,-71.3 -14.74,-133.5 -28.37,-183.7 -14.24,-50.1 -29.04,-89 -40.51,-114.8 -5.62,-13 -10.21,-22.9 -13.39,-29.5 -3.13,-6.7 -4.75,-10.1 -4.75,-10.1 0,0 2.25,3.1 6.6,9 0.24,0.3 0.55,0.7 0.79,1.1 -5.03,-8.5 -7.66,-12.9 -7.66,-12.9 0,0 12.34,15.2 35.5,43.8 5.52,7.3 12.63,14.8 18.72,24.4 6.28,9.5 13.12,19.9 20.52,31.2 7.15,11.4 16.07,23.2 23.36,36.8 7.17,13.7 14.79,28.3 22.84,43.7 30.1,62.5 63.53,142.2 78.67,239.8 16.3,96.8 19.69,210.7 -5.95,331.2 -3.74,14.9 -7.53,30 -11.35,45.2 z" /></clipPath></defs><sodipodi:namedview
     inkscape:document-rotation="0"
     pagecolor="#ffffff"
     bordercolor="#666666"
     borderopacity="1"
     objecttolerance="10"
     gridtolerance="10"
     guidetolerance="10"
     inkscape:pageopacity="0"
     inkscape:pageshadow="2"
     inkscape:window-width="1440"
     inkscape:window-height="789"
     id="namedview835"
     showgrid="false"
     fit-margin-top="0"
     fit-margin-left="0"
     fit-margin-right="0"
     fit-margin-bottom="0"
     inkscape:zoom="0.23269625"
     inkscape:cx="-76.304631"
     inkscape:cy="722.626"
     inkscape:window-x="0"
     inkscape:window-y="23"
     inkscape:window-maximized="1"
     inkscape:current-layer="g841" /><g
     id="g841"
     inkscape:groupmode="layer"
     inkscape:label="ink_ext_XXXXXX"
     transform="matrix(1.3333333,0,0,-1.3333333,-750.53255,2621.031)"><g
       id="g1011"
       transform="matrix(0.1,0,0,0.1,110.219,561.69124)"><g
         id="g903"><g
           id="g905"
           clip-path="url(#clipPath909-7)"><path
             d="m 7450.1,12310.1 c -23.2,-65.7 -52.4,-129.4 -87.47,-189.7 l -27.4,-44.6 c -9.43,-14.6 -19.67,-28.8 -29.45,-43.2 -20.45,-28.3 -41.93,-56.2 -64.15,-81.6 -10.37,-12.9 -23.33,-26.4 -35.87,-39.7 l -17.85,-19 -18.66,-18 c -24.78,-24.1 -51.48,-46.1 -78.77,-67.3 -55.31,-41.4 -115.16,-76.8 -178.43,-104.8 -126.71,-55.5 -266.56,-81.8 -405.29,-74.9 -69.35,3.2 -138.39,14.3 -205.15,33.6 -66.91,18.8 -131.46,45.9 -192.11,80 -15.4,8.1 -29.94,17.6 -44.81,26.7 -14.67,9.3 -28.04,18.7 -42.45,28.8 l -21.91,16.5 -10.1,7.6 -10.17,8.2 c -13.5,11 -26.68,22.4 -39.53,34.2 -12.8,11.7 -25.42,23.9 -37.19,36.5 -12.23,12.1 -23.3,25.3 -34.63,38.3 -21.69,26.7 -42.48,54.3 -60.22,83.9 -72.32,117.3 -109.22,256.3 -105.14,394.7 3.61,138.4 48.31,275.6 127.82,389.4 9.49,14.6 20.66,27.9 31.06,41.8 11.22,12.9 21.02,25.6 34.3,39.1 23.72,25.8 48.72,48.8 76.3,69.4 54.76,41.4 117.02,72.8 183.02,92.1 132.01,39.1 278.37,27.9 403.67,-30.4 31.35,-14.5 61.41,-31.9 89.55,-52.1 13.98,-10.1 27.97,-20.7 40.51,-31.6 6.36,-5.1 13.03,-11.3 19.74,-17.7 l 10.02,-9.4 c 2.11,-2 5.7,-5.9 8.48,-8.7 47.75,-49 84.17,-109 105.35,-174.2 21.68,-65.2 27.62,-135.4 18.73,-203.7 -9.41,-68.2 -33.8,-134.6 -72.32,-192 -9.56,-14.2 -20.05,-28.5 -30.93,-41.2 l -8.16,-9.6 -9.38,-10 -4.7,-5.1 -2.34,-2.5 -1.84,-1.7 -9.22,-8.9 c -25.03,-23.2 -53.11,-43.3 -83.71,-58.5 -60.96,-31 -131.04,-44.1 -199.48,-37.5 -68.47,6.4 -135.06,32.8 -189.36,75.4 -6.98,5.3 -12.88,10.6 -19.57,16.3 l -10.01,9.4 -2.51,2.4 -1.88,1.9 -4.43,4.6 c -11.77,12.3 -22.49,25.6 -31.97,39.8 -18.9,28.3 -32.58,60.2 -40.5,93.4 -16.11,66.6 -7.27,138.9 24.03,200.1 15.93,30.7 36.58,58.2 62.12,81.6 25.23,22.8 55.49,39.9 88.14,49.7 65.31,19.9 139.55,9.2 196.42,-29.5 7.04,-4.8 14.18,-10.1 20.39,-15.4 3.13,-2.5 6.44,-5.5 9.81,-8.8 1.49,-1.4 3.74,-3.4 4.61,-4.4 l 4.42,-4.5 c 11.55,-12.4 21.48,-26.3 29.21,-41.4 15.65,-30.1 22.64,-64.7 20.02,-98.6 -2.5,-34 -14.6,-67.3 -34.68,-95 -5.38,-7.1 -9.92,-12.9 -16.61,-19.8 -5.89,-5.6 -12,-11.8 -18.92,-16.5 -13.51,-10.1 -28.75,-17.8 -44.92,-22.8 -32.43,-9.7 -68.22,-7.8 -99.6,5.3 -3.84,1.8 -7.79,3.4 -11.56,5.3 l -11.04,6.4 c -6.74,4.7 -13.34,9.2 -20.25,15.8 -12.37,11.1 -22.5,25.1 -29.17,40.4 -13.58,30.8 -12.5,67.7 2.33,98 3.69,7.7 8.36,14.7 13.16,21.2 l 9.01,10.2 c 2.52,2 5.76,5.7 9.07,7.9 13.1,10.3 29.06,16.8 45.69,18.8 33.39,4 68.36,-10.7 87.14,-39 9.06,-13.8 12.83,-30.9 11.22,-47.4 -0.75,-8.3 -3.13,-16.4 -6.69,-23.9 -3.83,-7.8 -7.74,-13.7 -14.43,-20.7 l 10.58,-9.6 c 13.37,13.3 23.55,32.9 25.54,52.5 2.27,19.8 -1.98,40.6 -12.75,57.6 -2.72,4.2 -5.55,8.4 -9,12.1 l -2.51,2.8 c -0.78,0.9 -2.25,2.2 -2.82,2.7 l -5.06,4.7 c -7.78,6.3 -16.2,12.1 -25.2,16 -17.91,8.6 -38.27,11.6 -57.99,9.7 -19.77,-2.1 -39,-9.6 -54.9,-21.7 -4.31,-2.9 -7.26,-6.1 -11.71,-10 l -9.28,-10.2 c -6.4,-8.1 -11.93,-16.3 -16.32,-25.1 -17.83,-35.1 -19.8,-78.1 -4.37,-114.7 7.64,-18.3 19.22,-34.9 33.86,-48.4 6.22,-6.2 14.5,-12.4 22.73,-18.2 l 12.6,-7.6 c 4.31,-2.3 8.82,-4.3 13.23,-6.4 35.97,-15.6 77.33,-18.5 115.29,-7.8 18.93,5.5 36.91,14.3 52.92,25.8 8.24,5.6 15.29,12.3 22.62,19.2 6.2,6.2 13.27,14.5 18.97,22 23.39,31.2 37.87,69.1 41.32,108.1 3.6,38.9 -3.79,79 -21.4,114.1 -8.71,17.6 -20,34 -33.2,48.6 l -5.04,5.3 c -2.24,2.4 -3.46,3.4 -5.24,5.2 -3.18,3.2 -6.59,6.4 -10.52,9.7 -7.54,6.7 -15.08,12.4 -23.12,18 -63.82,44.9 -148.13,58.6 -223.44,36.9 -37.65,-10.6 -72.91,-29.9 -102.43,-55.7 -28.82,-25.6 -53.43,-57 -71.59,-91.1 -36.44,-68.6 -47.78,-150.4 -30.6,-226.6 8.43,-38 23.55,-74.7 44.75,-107.6 10.62,-16.5 22.7,-31.9 35.99,-46.3 l 5.01,-5.3 c 1.01,-1.1 1.29,-1.5 2.9,-3 l 2.47,-2.4 9.88,-9.6 c 7.05,-6.3 14.75,-13.3 22.28,-19.2 60.13,-48.7 134.71,-79.6 211.92,-88 77.18,-8.7 156.91,4.8 227.05,39.1 35.18,16.9 67.68,39.3 96.68,65.4 l 10.68,10 3.1,3 2.39,2.5 4.76,4.9 9.53,9.9 9.77,11.1 c 13.21,14.9 24.57,30 35.69,46 44.06,63.6 72.69,137.7 84.41,214.3 11.21,76.6 5.72,156 -17.7,230.3 -22.89,74.4 -63.34,143.4 -116.89,200.1 -3.58,3.7 -6.1,6.7 -10.57,11 l -9.88,9.6 c -6.46,6.3 -13.08,12.7 -20.84,19.2 -14.86,13.4 -29.9,25.1 -45.38,36.7 -31.04,22.9 -64.32,42.9 -99.15,59.6 -139.15,67.6 -303.35,82.7 -452.88,40.1 -74.76,-21 -145.73,-55.7 -208.34,-101.8 -31.28,-22.9 -60.7,-49.4 -86.81,-77.2 -12.56,-12.4 -25.7,-28.3 -38.54,-42.9 -11.82,-15.3 -24.24,-30 -35.01,-46 -89.69,-125.3 -141.32,-277.4 -147.1,-431.7 -6.32,-154.3 33.05,-310.5 112.91,-443.5 19.61,-33.5 42.56,-64.8 66.68,-95.1 12.53,-14.8 24.87,-29.7 38.43,-43.6 13.13,-14.3 26.68,-27.7 40.73,-40.8 7.98,-7.5 16.35,-14.6 24.57,-21.8 -6.8,-2.2 -13.63,-4.4 -20.41,-6.8 -25.3,-8.8 -50.35,-18.3 -75.15,-28.6 -49.56,-20.4 -98.17,-43.4 -145.46,-69 -94.28,-51.6 -183.55,-113.6 -263.12,-187.4 -79.57,-73.6 -148.93,-159.7 -201.34,-256.1 -41.74,-76.4 -71.77,-159.2 -90.28,-244.6 -177.06,198.2 -309.67,433.9 -386.16,686 -82.35,272.8 -100.51,563.9 -51.19,842.8 24.76,139.3 64.86,275.8 120.9,405.4 55.64,129.7 127.37,252.2 211.92,364.8 42.21,56.1 88.75,110.4 136.12,160.5 11.57,12.6 25.32,26 37.88,38.9 11.49,11.1 24.55,24.2 37.25,35.7 25.43,23.8 52.1,46.2 79.21,68.1 108.89,86.7 230.43,157.2 359.52,208.9 258.34,102.7 547.17,129.3 820.13,71.9 136.43,-28.4 268.51,-77.3 391.08,-143.9 122.35,-66.7 235.49,-152.1 332.7,-252.1 96.7,-98.9 175.35,-215.8 228.89,-343.7 53.94,-127.8 83.93,-265.7 88.08,-404.8 4.25,-139 -17.26,-278.9 -63.64,-410.3 z m 91.07,863 c -57.82,142.9 -143.34,274.7 -249.4,386.8 -209.85,222.8 -488.35,381.2 -788.86,445.3 -299.79,65.4 -619.71,40.9 -905.04,-74.8 -142.83,-56.9 -276.72,-136.1 -395.72,-233.2 -29.67,-24.3 -58.79,-49.3 -86.54,-75.8 -14.33,-13.3 -27.04,-26.2 -41.67,-40.7 -12.82,-13.5 -25.19,-25.7 -38.37,-40.1 -52.79,-56.6 -100.26,-114.9 -145.25,-176.4 -178.57,-245.9 -297.85,-534.3 -342.22,-833.7 -44.97,-299.1 -18.7,-608.3 78.64,-893 48.61,-142.2 113.18,-278.9 194.15,-405 80.43,-126.3 176.58,-242.1 283.7,-345.6 l 49.43,-47.7 7.09,67.2 c 10.77,102.1 38.7,202.6 84.74,295.1 45.78,92.5 108.43,177.1 182.3,250.9 73.85,74 158.36,137.7 248.73,191.9 45.09,27.3 91.75,52.2 139.58,74.6 23.92,11.3 48.15,21.9 72.67,31.8 9.4,3.8 18.92,7.4 28.43,11 1.39,-1.2 2.69,-2.5 4.1,-3.7 l 11.1,-9.1 11.71,-9.1 21.71,-16.8 c 15.45,-11.1 31.92,-22.9 47.98,-33.4 16.27,-10.2 32.25,-20.9 49.13,-30.1 66.56,-38.4 137.61,-69.1 211.42,-90.8 73.65,-22.2 149.97,-35.3 226.81,-39.8 153.71,-9.4 309.53,17.9 451.69,78.3 70.98,30.4 138.37,69.2 200.74,114.8 30.81,23.3 60.92,47.7 88.95,74.3 l 21.06,19.9 20.03,20.7 c 12.68,13.2 25.32,26 38.23,41.3 205.66,230 316.6,537.4 310.75,845 -2.56,153.7 -33.69,307.1 -91.8,449.9"
             style="fill:url(#linearGradient915);fill-opacity:1;fill-rule:nonzero;stroke:none"
             id="path917" /></g></g><g
         id="g919"><g
           id="g921"
           clip-path="url(#clipPath925-9)"><path
             d="m 7262.55,12958.9 c -3.96,15.2 -7.23,30.8 -13.07,45.8 -10.88,30.1 -20.18,61.8 -35.15,91.7 -6.98,15.2 -14.02,30.5 -21.12,45.9 -8.56,14.7 -17.18,29.5 -25.88,44.5 -16.3,30.6 -38.37,58.1 -58.8,87.4 l -7.86,10.9 -8.78,10.1 -17.68,20.5 -17.86,20.6 -9,10.3 -2.25,2.6 -1.13,1.3 -2.15,2.2 -4.57,4.5 c -12.19,12.3 -24.46,24.6 -36.8,36.9 -13.9,12.6 -27.88,25.2 -41.94,38 -56.22,48.9 -118.45,92.7 -185.53,131.3 -134.04,77.2 -288.7,130.4 -450.64,150.4 -20.2,3 -40.56,4.7 -60.98,6.1 -20.4,2 -40.9,2.6 -61.44,3.1 l -15.41,0.5 -9.36,0.2 -7.28,-0.1 -29.15,-0.5 c -18.69,0.1 -40.83,-1.8 -61.82,-3.2 -83.4,-6.5 -164.76,-21.1 -244.86,-43.8 -159.57,-46 -309.77,-125.1 -435.31,-229.5 -15.4,-13.4 -30.77,-26.7 -46.1,-40 -14.9,-13.8 -29.28,-28.1 -43.84,-42.1 l -2.71,-2.6 -1.35,-1.3 -3.21,-3.4 -4.78,-5.3 -9.55,-10.6 -19.06,-21.2 c -12.68,-14.2 -25.33,-28.3 -37.95,-42.3 -12.76,-13.2 -24.81,-30.3 -37.01,-45.9 -12.12,-15.8 -24.21,-31.6 -36.25,-47.4 l -17.95,-23.6 c -5.52,-8 -10.49,-16.3 -15.73,-24.4 -10.34,-16.2 -20.64,-32.4 -30.89,-48.6 -80.6,-129.9 -137.41,-267.4 -174.79,-401.4 -39.11,-133.8 -52.07,-265.8 -54.15,-386 -0.08,-15.1 -0.16,-30 -0.24,-44.7 -0.01,-14.7 -0.53,-29.3 0.94,-43.7 2.05,-28.7 3.85,-56.8 6.19,-84 0.56,-6.8 1.11,-13.6 1.65,-20.3 1.04,-6.7 2.06,-13.3 3.08,-19.9 2.07,-13.2 4.11,-26.1 6.13,-38.9 2.01,-12.8 4,-25.4 5.96,-37.8 1.96,-12.3 3.62,-24.6 6.8,-36.3 5.6,-23.7 11.02,-46.5 16.25,-68.6 2.62,-11 5.19,-21.8 7.72,-32.4 3.01,-10.5 6.66,-20.6 9.86,-30.6 6.57,-19.8 12.88,-38.9 18.9,-57.1 3.01,-9.1 5.95,-17.9 8.81,-26.6 3.14,-8.5 6.86,-16.7 10.12,-24.7 13.33,-32 25.31,-60.4 36,-84.9 11.94,-24 22.96,-44 31.43,-60.4 17.34,-32.4 26.59,-49.7 26.59,-49.7 0,0 -6.64,18.5 -19.11,53.1 -6.19,17.2 -14.38,38.3 -22.91,63.3 -7.08,25.6 -15.51,54.9 -25.05,87.5 -17.51,65.6 -33.24,146.5 -44.71,239.6 -8.29,93.4 -14.1,199 -2.64,313.1 1.13,14.2 2.26,28.6 3.41,43.1 1.96,14.5 4.48,29 6.7,43.7 2.3,14.6 4.61,29.4 6.95,44.3 2.27,14.9 4.4,30 8.42,44.9 7.23,29.8 13.79,60.3 20.75,91.1 9.21,30.2 18.55,60.9 28.03,92 41.57,123.1 101.48,246.8 179.33,364 9.98,14.5 20,29 30.06,43.6 5.05,7.2 9.97,14.7 15.15,21.8 l 16.44,20.3 c 10.94,13.6 21.91,27.2 32.91,40.9 11.24,13.7 21.01,27.5 34.89,41.2 12.99,13.7 26.01,27.4 39.08,41.2 l 19.62,20.7 9.83,10.4 4.74,5 c -0.64,-0.7 -1.98,-2.2 -0.48,-0.6 l 1.24,1.1 2.48,2.3 c 13.23,12.2 26.2,24.7 39.65,36.8 13.82,11.6 27.67,23.2 41.55,34.9 113.35,90.4 246.02,159.8 387.55,199.9 70.35,20.4 143.78,33.9 215.79,39.9 17.9,1.2 34.56,3.1 54.8,3.2 l 29.14,1 6.72,0.2 c 0.34,0 0.69,0 0.63,0 l 1.71,-0.1 h 3.42 l 13.69,-0.2 c 18.25,-0.2 36.48,-0.4 54.62,-1.9 18.17,-1 36.3,-2.2 54.29,-4.5 72.08,-8 142.92,-22.5 211.02,-43.3 68.09,-20.9 133.31,-48.2 194.79,-80.4 61.45,-32.1 118.75,-70.3 171.66,-111 12.74,-10.3 25.41,-20.5 38,-30.7 12.97,-11.7 25.87,-23.3 38.7,-34.9 l 4.8,-4.3 c -0.02,0 0.29,-0.2 0.55,-0.5 l 0.66,-0.7 2.1,-2.2 8.35,-8.7 16.68,-17.3 16.63,-17.2 8.3,-8.6 7.4,-9.2 c 81.08,-97 137.36,-206 168.83,-313.5 6.74,-27.1 13.3,-53.8 18.74,-80.2 1.22,-8.5 2.42,-16.8 3.62,-25.1 -16.9,84.4 -49.05,172.8 -99.35,257 -14.03,24 -29.83,47.3 -46.96,70.2 -16.72,22.7 -37.48,47.3 -54.87,66.3 -40.12,43.8 -83.93,82.9 -132.61,119.5 -97.07,72.5 -212.36,128.9 -336.65,159.8 -62.46,15.5 -125.18,25.5 -192.28,28.3 l -22.59,0.6 -11.3,0.3 -7.34,0.2 -6.09,-0.2 c -16.22,-0.4 -32.49,-0.3 -48.72,-1.3 -32.46,-1.8 -64.89,-4.9 -97.08,-9.9 -128.67,-20 -253.41,-65.9 -362.03,-133.9 -54.75,-33.8 -104.24,-72 -151.54,-116.5 -10.4,-10.2 -20.77,-20.4 -31.1,-30.6 -10.81,-11.7 -21.59,-23.3 -32.33,-34.9 -10.59,-11 -19.71,-23.2 -29.5,-34.7 l -14.36,-17.5 -13.5,-18.1 c -36.19,-47.9 -68.14,-97.7 -94.41,-149 -26.49,-51.1 -49.49,-102.6 -66.36,-154.6 -17.24,-51.8 -31.06,-103.1 -39.52,-153.6 -5.04,-25 -7.56,-50.1 -10.84,-74.4 -2.14,-24.6 -4.65,-48.3 -5.21,-72.3 -0.66,-24 -1.38,-47.6 -0.35,-68.9 0.35,-11.2 0.68,-22.2 1.02,-33.2 0.8,-10.9 1.6,-21.7 2.39,-32.3 3.81,-42.6 9.96,-82.6 17.52,-119.6 14.62,-74.4 36.39,-136.6 56.86,-186.3 20.2,-49.8 40.84,-86.6 54.96,-111.4 6.86,-12.6 13.01,-21.6 16.8,-27.9 3.9,-6.2 5.91,-9.4 5.91,-9.4 0,0 -5.65,14.1 -15.35,40.8 -9.9,26.4 -22.68,66.1 -35.53,116.8 -12.79,50.7 -23.95,113.2 -29.9,185 -6.02,71.7 -3.9,152.8 7.65,239.8 2.78,21.2 7.02,43.4 10.95,65.6 5.07,22.1 9.31,44.7 16.01,67.1 11.81,45.3 27.47,91 46.69,136.5 18.89,45.6 41.93,90.8 68.62,134.9 12.99,22.3 28.01,43.6 42.54,65.5 15.71,21 31.15,42.6 48.58,62.8 l 12.74,15.5 13.55,14.9 c 9.23,9.8 17.75,20.3 27.5,29.7 9.13,9.3 18.29,18.6 27.48,27.9 10.68,9.8 21.4,19.6 32.14,29.5 39.13,33.9 84.51,67 131.56,94.9 94.8,55.7 201.55,94.5 312.02,111 27.59,4.3 55.36,7.3 83.21,9 13.91,1 27.87,0.9 41.8,1.5 l 4.97,0.1 h 1.39 l 2.83,-0.1 11.31,-0.2 22.59,-0.5 c 53.27,-2.2 109.95,-9 163.24,-21.4 53.65,-12.4 105.78,-29.7 155.43,-51.1 49.62,-21.6 96.47,-47.9 140.33,-77.3 43.68,-29.2 84.44,-63.3 120.63,-97.6 9.53,-9.5 20.07,-19.4 27.56,-28 8.14,-8.9 16.44,-17.3 24.3,-27.2 7.93,-9.5 16.08,-18.8 23.25,-28.8 7.34,-9.8 15.06,-19.3 21.71,-29.4 55.65,-79.5 93.28,-165.5 114.64,-248.9 10.88,-41.7 17.42,-82.7 21.69,-122.2 0.87,-9.9 1.73,-19.6 2.58,-29.3 0.65,-8.7 0.94,-19.6 1.41,-29.1 0.12,-9.3 0.24,-18.4 0.36,-27.5 -0.22,-9.1 -0.43,-18.2 -0.64,-27.1 -3.2,-71.3 -14.74,-133.5 -28.37,-183.7 -14.24,-50.1 -29.04,-89 -40.51,-114.8 -5.62,-13 -10.21,-22.9 -13.39,-29.5 -3.13,-6.7 -4.75,-10.1 -4.75,-10.1 0,0 2.25,3.1 6.6,9 0.24,0.3 0.55,0.7 0.79,1.1 -5.03,-8.5 -7.66,-12.9 -7.66,-12.9 0,0 12.34,15.2 35.5,43.8 5.52,7.3 12.63,14.8 18.72,24.4 6.28,9.5 13.12,19.9 20.52,31.2 7.15,11.4 16.07,23.2 23.36,36.8 7.17,13.7 14.79,28.3 22.84,43.7 30.1,62.5 63.53,142.2 78.67,239.8 16.3,96.8 19.69,210.7 -5.95,331.2 -3.74,14.9 -7.53,30 -11.35,45.2"
             style="fill:url(#linearGradient931);fill-opacity:1;fill-rule:nonzero;stroke:none"
             id="path933" /></g></g></g></g></svg>
